<svg width="162" height="311" viewBox="0 0 162 311" fill="none" xmlns="http://www.w3.org/2000/svg">
<g clip-path="url(#clip0_513_12921)">
<path d="M59.8026 296.859H53.8523V300.293H59.5515V303.751H53.8523V307.227H59.8026V310.684H49.916V293.406H59.8026V296.859Z" fill="#174935"/>
<path d="M66.0014 310.687H62.0781V293.406H66.0014L72.8722 304.13H72.9141V293.406H76.853V310.687H72.9141L66.0432 299.963H66.0014V310.687Z" fill="#174935"/>
<path d="M89.3571 296.859H83.3022V300.293H88.8942V303.751H83.3022V310.684H79.3633V293.406H89.3571V296.859Z" fill="#174935"/>
<path d="M98.7602 305.806C98.7602 309.206 96.8326 311.001 93.3775 311.001C91.8692 310.978 90.425 310.387 89.334 309.345L90.592 306.057C90.592 306.057 91.8292 307.229 92.8335 307.229C93.9634 307.229 94.8239 306.539 94.8239 304.799V293.406H98.7602V305.806Z" fill="#174935"/>
<path d="M89.1621 57.6641C101.408 76.4249 111.538 80.2383 111.538 80.2383C111.538 80.2383 110.183 75.0282 106.097 68.908C102.012 62.7878 89.1621 57.6641 89.1621 57.6641Z" fill="#99C26D"/>
<path d="M89.1621 57.6641C96.428 68.0842 106.749 72.1042 106.749 72.1042C106.749 72.1042 107.089 70.9952 107.499 69.2716C108.831 63.6405 110.868 51.4209 103.976 49.6031C102.89 49.31 101.762 49.2012 100.639 49.2814C93.5588 49.7548 89.1621 57.6641 89.1621 57.6641Z" fill="#728D56"/>
<path d="M107.497 69.2716C108.828 63.6405 110.866 51.4209 103.974 49.6031C102.887 49.31 101.759 49.2012 100.636 49.2814C96.6086 57.5019 103.958 67.2525 107.497 69.2716Z" fill="#99C26D"/>
<path d="M101.338 105.992C101.338 124.083 110.735 139.327 123.533 143.893C126.108 144.818 128.824 145.293 131.56 145.295C148.244 145.295 161.763 127.701 161.763 105.992C161.763 87.4065 151.861 71.8391 138.543 67.7406C136.283 67.0353 133.928 66.6773 131.56 66.6787C114.865 66.6787 101.338 84.281 101.338 105.992Z" fill="#E8F177"/>
<path d="M98.4336 105.992C98.4336 124.083 107.831 139.327 120.629 143.893C123.201 144.817 125.912 145.291 128.645 145.295C145.329 145.295 158.852 127.701 158.852 105.992C158.852 87.4065 148.949 71.8391 135.629 67.7406C133.368 67.0351 131.013 66.6771 128.645 66.6787C111.961 66.6787 98.4336 84.281 98.4336 105.992Z" fill="#99C26D"/>
<path d="M102.893 105.993C102.893 113.005 104.546 119.502 107.376 124.885C107.721 125.541 108.082 126.192 108.464 126.799C110.193 129.682 112.397 132.251 114.984 134.397L115.246 134.612C117.225 136.204 119.456 137.455 121.847 138.315C122.2 138.441 122.551 138.553 122.912 138.663C124.771 139.216 126.7 139.496 128.639 139.495C132.046 139.484 135.396 138.627 138.39 137.002C138.652 136.866 138.913 136.725 139.175 136.573C141.072 135.455 142.816 134.096 144.364 132.53C144.777 132.116 145.185 131.682 145.58 131.222C150.989 125.078 154.399 116.052 154.399 105.982C154.399 95.9127 150.999 86.8762 145.58 80.735C145.235 80.3375 144.876 79.9504 144.51 79.5868C142.66 77.6706 140.514 76.0642 138.155 74.8292C137.613 74.5442 137.059 74.2904 136.499 74.0446C134.947 73.4063 133.323 72.9584 131.663 72.7107C131.077 72.6244 130.489 72.5616 129.892 72.5198C129.479 72.4962 129.066 72.4805 128.645 72.4805C126.756 72.476 124.875 72.7402 123.061 73.2652C122.702 73.3672 122.349 73.4796 121.996 73.6052C118.842 74.7331 115.963 76.5158 113.548 78.8362C112.983 79.375 112.429 79.9373 111.9 80.531C110.423 82.197 109.122 84.0113 108.019 85.9451C107.629 86.6251 107.258 87.3208 106.905 88.0375C104.357 93.2345 102.893 99.3887 102.893 105.993Z" fill="#4F4842"/>
<g style="mix-blend-mode:multiply" opacity="0.4">
<g style="mix-blend-mode:multiply" opacity="0.3">
<path d="M144.355 132.53C144.769 132.116 145.177 131.682 145.572 131.222V80.7429C145.226 80.3454 144.868 79.9583 144.502 79.5947L144.355 132.53Z" fill="#4F4842"/>
</g>
<g style="mix-blend-mode:multiply" opacity="0.3">
<path d="M136.492 74.0654L138.396 137.002C138.658 136.866 138.919 136.725 139.181 136.573L138.161 74.8475C137.606 74.5545 137.052 74.3008 136.492 74.0654Z" fill="#4F4842"/>
</g>
<g style="mix-blend-mode:multiply" opacity="0.3">
<path d="M131.663 72.7105L129.309 132.569L129.9 72.5195C130.488 72.5614 131.077 72.6242 131.663 72.7105Z" fill="#4F4842"/>
</g>
<g style="mix-blend-mode:multiply" opacity="0.3">
<path d="M121.852 138.315C122.205 138.44 122.555 138.553 122.916 138.663L123.06 73.2754C122.702 73.3774 122.349 73.4899 121.995 73.6154L121.852 138.315Z" fill="#4F4842"/>
</g>
<g style="mix-blend-mode:multiply" opacity="0.3">
<path d="M111.9 80.5314C112.314 89.0082 114.09 125.209 114.984 134.41L115.246 134.625L113.543 78.8496C112.988 79.3753 112.429 79.9377 111.9 80.5314Z" fill="#4F4842"/>
</g>
<g style="mix-blend-mode:multiply" opacity="0.4">
<path d="M106.895 88.0429L107.376 124.885C107.721 125.541 108.082 126.192 108.464 126.799C108.409 122.518 108.082 97.3488 108.009 85.9453C107.619 86.6253 107.248 87.3211 106.895 88.0429Z" fill="#4F4842"/>
</g>
</g>
<g style="mix-blend-mode:multiply" opacity="0.5">
<path d="M98.4336 105.992C98.4336 124.083 107.831 139.327 120.629 143.893C106.215 121.188 112.387 67.5209 135.629 67.7406C133.368 67.0351 131.013 66.6771 128.645 66.6787C111.961 66.6787 98.4336 84.281 98.4336 105.992Z" fill="#B1C9CB"/>
</g>
<path d="M126.304 111.778C123.495 112.887 119.3 110.886 119.3 110.886L118.826 106.354L120.879 104.295C120.879 104.295 127.01 104.133 127.321 104.075C127.633 104.018 128.681 104.75 128.681 104.75L126.304 111.778Z" fill="#EBA87F"/>
<path d="M128.908 97.6776L127.723 118.256C127.723 118.256 123.766 118.455 123.962 117.861C124.158 117.268 124.951 96.8877 124.951 96.8877L128.908 97.6776Z" fill="#6C5F5B"/>
<path d="M127.419 102.721C127.419 102.721 132.852 103.879 132.598 104.988C132.344 106.097 130.83 105.919 130.83 105.919C130.83 105.919 132.475 107.795 132.166 108.433C131.858 109.071 130.406 109.142 130.406 109.142C130.406 109.142 131.078 110.591 130.861 111.187C130.644 111.783 128.931 111.532 128.931 111.532C128.931 111.532 129.559 112.288 129.245 113.149C128.931 114.009 124.356 112.34 124.631 111.388C124.906 110.436 126.818 110.536 126.818 110.536C126.818 110.536 124.356 109.262 124.898 108.182C125.439 107.102 127.074 107.774 127.074 107.774C127.074 107.774 125.737 106.911 126.077 105.982C126.417 105.054 127.367 105.328 127.367 105.328C127.367 105.328 125.327 103.312 127.419 102.721Z" fill="#FFC393"/>
<path d="M120.881 104.295C122.641 102.744 127.116 101.962 127.116 101.962L131.327 107.266C131.327 107.266 127.88 109.073 126.81 105.1C125.434 105.297 122.338 107.936 120.881 104.295Z" fill="#FFC393"/>
<path d="M96.0625 112.124C96.0625 112.124 101.375 112.257 106.993 112.226C113.11 112.194 119.594 111.964 120.005 111.133C120.481 110.183 120.813 108.086 120.868 106.307C120.915 105.127 120.836 104.089 120.606 103.616C120.376 103.142 117.426 102.229 113.746 101.186C108.601 99.729 102.047 98.1152 99.6091 97.5241L98.644 97.2861L96.0625 112.124Z" fill="#99C26D"/>
<g style="mix-blend-mode:screen" opacity="0.6">
<path d="M98.4355 103.353C98.4355 103.353 105.401 107.538 120.866 106.306C120.913 105.127 120.835 104.088 120.604 103.615C120.374 103.142 117.424 102.229 113.744 101.185C108.599 99.7283 102.045 98.1145 99.6073 97.5234C98.9037 99.8617 98.4355 103.353 98.4355 103.353Z" fill="#99C26D"/>
</g>
<g style="mix-blend-mode:multiply" opacity="0.4">
<path d="M96.0625 112.123C96.0625 112.123 101.375 112.257 106.993 112.225C101.16 108.475 100.977 101.288 113.738 101.186C107.293 99.3547 98.6362 97.2832 98.6362 97.2832L96.0625 112.123Z" fill="#B1C9CB"/>
</g>
<path d="M25.1426 98.405L30.3736 103.615C30.3736 103.615 30.9385 103.204 31.7676 102.59C33.5566 101.258 36.5984 98.9673 37.7989 97.8819C39.5539 96.2786 52.3725 81.59 52.3725 81.59L55.0219 86.2639L60.8623 80.3895L62.7246 70.5814L57.2791 59.8213L39.4729 79.4375L35.9158 84.6344L29.4241 94.1287C29.4241 94.1287 25.1347 98.0048 25.1426 98.405Z" fill="#383635"/>
<path d="M76.5449 232.415L87.6738 226.321L88.5422 220.671L96.4488 169.264L98.8001 153.992L79.1944 154.787L76.5449 232.415Z" fill="#383635"/>
<path d="M76.5449 232.415L87.6738 226.321L88.5422 220.671C84.7157 220.41 80.9573 209.671 80.9573 196.648C80.9573 180.762 92.1908 149.224 96.441 169.264L98.7949 153.992L79.1787 154.777L76.5449 232.415Z" fill="#383635"/>
<path d="M87.1436 197.443L75.4863 195.589V202.475L86.6152 201.947L87.1436 197.443Z" fill="#99C26D"/>
<path d="M74.957 232.149C75.4801 252.288 77.6065 264.738 77.6065 264.738L82.3955 264.536L83.9648 264.471L91.3823 230.825C91.2019 225.971 86.9621 222.793 86.9621 222.793C86.9621 222.793 78.93 225.262 74.957 232.149Z" fill="#99C26D"/>
<g style="mix-blend-mode:multiply" opacity="0.5">
<path d="M74.957 232.149C75.4801 252.288 77.6065 264.738 77.6065 264.738L82.3955 264.536C82.746 258.22 86.9621 222.793 86.9621 222.793C86.9621 222.793 78.93 225.262 74.957 232.149Z" fill="#B1C9CB"/>
</g>
<path d="M76.5439 268.71C76.4113 268.011 76.4379 267.291 76.6217 266.603C76.8056 265.915 77.1419 265.277 77.6058 264.737C79.1934 262.883 100.389 267.387 99.9918 268.71C99.5942 270.034 76.5439 268.71 76.5439 268.71Z" fill="#99C26D"/>
<path d="M88.4701 213.604C91.1824 213.688 93.4395 211.462 95.0088 208.294C98.4953 201.246 98.5162 189.526 92.1684 188.168C89.6157 187.619 87.3454 190.425 85.8311 194.359C82.9279 201.85 82.7369 213.423 88.4701 213.604Z" fill="#99C26D"/>
<g style="mix-blend-mode:multiply" opacity="0.4">
<path d="M88.4701 213.604C91.1824 213.688 93.4395 211.462 95.0088 208.295C89.8249 211.886 83.7125 203.885 85.8311 194.359C82.9279 201.85 82.7369 213.424 88.4701 213.604Z" fill="#B1C9CB"/>
</g>
<path d="M32.4609 226.42L44.3823 227.746L48.1147 217.222L67.0848 163.727L70.8773 153.032L66.9044 148.529L56.0396 147.205L49.4172 153.828L32.4609 226.42Z" fill="#383635"/>
<path d="M32.4609 226.42L44.3823 227.746L48.1251 217.222C44.0345 218.53 37.5899 209.072 42.4547 191.893C46.8645 176.326 58.5949 156.846 67.0927 163.727L70.8799 153.032L66.9044 148.529L56.0422 147.205L49.4172 153.828L32.4609 226.42Z" fill="#383635"/>
<path d="M48.6222 190.389L40.4096 187.739L38.291 193.833L47.5629 194.893L48.6222 190.389Z" fill="#99C26D"/>
<path d="M28.7525 262.718L30.9887 262.113L34.5824 261.127L47.2989 228.274C46.2397 220.326 43.3234 217.412 43.3234 217.412C43.3234 217.412 31.1378 223.242 29.5554 226.951C27.9731 230.66 28.7525 262.718 28.7525 262.718Z" fill="#99C26D"/>
<g style="mix-blend-mode:multiply" opacity="0.7">
<path d="M28.7515 262.718L30.9878 262.113C31.9633 256.516 36.6032 231.402 43.3224 217.412C43.3224 217.412 31.1368 223.242 29.5466 226.951C27.9564 230.66 28.7515 262.718 28.7515 262.718Z" fill="#B1C9CB"/>
</g>
<path d="M39.0854 266.426H23.7168C23.7168 266.426 26.1021 260.863 32.1962 260.332C38.2903 259.801 39.0854 266.426 39.0854 266.426Z" fill="#99C26D"/>
<path d="M49.4177 206.286C52.4491 206.974 55.0881 204.194 56.8352 200.31C59.8457 193.654 60.2354 183.712 55.5118 182.177C53.3697 181.486 51.4316 182.378 49.8519 184.18C44.7438 189.924 43.1562 204.877 49.4177 206.286Z" fill="#99C26D"/>
<g style="mix-blend-mode:multiply" opacity="0.4">
<path d="M49.4177 206.287C52.4491 206.975 55.0881 204.194 56.8352 200.31C51.3898 206.614 45.3585 192.202 49.8519 184.181C44.7438 189.924 43.1562 204.877 49.4177 206.287Z" fill="#B1C9CB"/>
</g>
<path d="M63.6543 149.323L63.9185 157.802L68.8461 158.195L93.6435 160.143L97.5641 160.452L99.9495 146.674L98.8902 137.137L70.2767 133.957L63.6543 149.323Z" fill="#383635"/>
<path d="M70.2741 133.957L98.8876 137.135L99.9468 146.674L97.5563 160.452L93.633 160.143C89.5424 138.811 79.5486 140.982 68.8356 158.192L63.908 157.802L63.6465 149.323L70.2741 133.957Z" fill="#383635"/>
<path d="M47.5859 155.852C63.5404 156.113 70.6022 145.913 73.3485 139.897C73.9921 138.536 74.5087 137.119 74.8916 135.663L56.2929 128.943C56.2929 128.943 55.571 131.279 54.4621 134.768C52.6914 140.425 49.9137 149.122 47.5859 155.852Z" fill="#99C26D"/>
<path d="M90.5215 137.836C90.5947 139.678 90.7931 141.513 91.1152 143.329C93.15 154.86 99.4246 162.189 99.4246 162.189L100.628 139.785L101.01 132.707L90.5215 137.836Z" fill="#99C26D"/>
<g style="mix-blend-mode:multiply" opacity="0.6">
<path d="M101.01 132.699L90.5215 137.836C90.5947 139.678 90.7931 141.513 91.1152 143.329L100.628 139.785L101.01 132.699Z" fill="#B1C9CB"/>
</g>
<g style="mix-blend-mode:multiply" opacity="0.6">
<path d="M54.4727 134.765L73.3486 139.902C73.9923 138.541 74.5088 137.124 74.8918 135.668L56.293 128.943C56.293 128.943 55.5712 131.276 54.4727 134.765Z" fill="#B1C9CB"/>
</g>
<path d="M59.4818 119.104C59.5525 119.308 59.5838 119.428 59.5838 119.428L52.4776 130.539C52.4776 130.539 82.6708 140.559 89.424 140.452C89.6044 140.452 89.7797 140.436 89.9287 140.42C90.5609 140.331 91.1852 140.192 91.7962 140.007C97.2181 138.393 104.026 133.186 104.026 133.186L98.7952 118.717C98.7952 118.717 105.096 100.348 103.979 86.5072C103.956 86.1802 103.924 85.8637 103.893 85.5473C102.548 73.1289 97.8537 62.531 90.7788 57.878C90.4937 57.6897 90.2086 57.5066 89.9078 57.3418C89.3197 56.9958 88.7079 56.6916 88.077 56.4316H63.7242L61.5245 56.9129L53.155 58.7254C53.155 58.7254 52.2919 60.6661 58.2604 65.612C64.229 70.5579 60.6902 81.3049 51.7949 86.957C51.8185 87.3598 51.8577 87.7809 51.9048 88.2229C52.9536 97.6387 58.658 116.405 59.4818 119.104Z" fill="#99C26D"/>
<g style="mix-blend-mode:multiply" opacity="0.4">
<path d="M98.7845 118.723C98.7845 118.723 105.085 100.354 103.968 86.513C103.945 86.1861 103.913 85.8696 103.882 85.5531C102.538 73.1348 97.8429 62.5368 90.768 57.8838C90.4829 57.6955 90.1978 57.5124 89.897 57.3477C89.4315 57.5438 89.1699 57.6641 89.1699 57.6641C105.823 75.915 100.987 105.601 98.7845 118.723Z" fill="#B1C9CB"/>
</g>
<g style="mix-blend-mode:screen" opacity="0.2">
<path d="M51.7871 86.9622C51.8106 87.365 51.8525 87.7887 51.8996 88.2334C70.208 103.019 101.84 105.608 103.948 86.5098C103.927 86.1854 103.898 85.869 103.862 85.5499C102.522 73.1367 97.8276 62.5335 90.7527 57.8858C89.8982 57.3159 88.9898 56.8314 88.0404 56.4395H63.7216L61.522 56.9181L53.1524 58.7332C53.1524 58.7332 52.3102 60.6792 58.2631 65.6146C64.2159 70.55 60.6929 81.3154 51.7871 86.9622Z" fill="#B1C9CB"/>
</g>
<g style="mix-blend-mode:multiply" opacity="0.4">
<path d="M59.5865 119.426L52.4776 130.541C52.4776 130.541 84.3656 141.126 89.9314 140.42C90.3394 134.028 86.6019 122.326 86.2697 121.267C86.2488 121.217 86.241 121.191 86.241 121.191C86.241 121.191 94.6105 90.3283 81.3944 60.4961L70.1478 56.4395H63.7216L53.1576 58.7332C53.1576 58.7332 52.3102 60.6792 58.263 65.6146C64.2159 70.55 60.6928 81.3075 51.7949 86.9622C52.4069 95.8261 58.6161 116.279 59.4845 119.101C59.5499 119.313 59.5865 119.426 59.5865 119.426Z" fill="#99C26D"/>
</g>
<g style="mix-blend-mode:screen" opacity="0.4">
<path d="M80.3997 58.6763C86.9751 74.6674 87.4929 105.721 84.5845 121.247C87.3046 125.834 88.8739 136.139 89.4232 140.452C89.5928 140.449 89.7622 140.437 89.9306 140.416C90.5621 140.33 91.1857 140.193 91.7954 140.008C91.3351 133.791 86.2636 121.262 86.2636 121.262C86.2636 121.262 94.1938 87.1328 82.2436 58.6711C81.9939 57.9057 81.6915 57.1585 81.3387 56.4348C80.9516 55.7077 80.554 55.3337 80.4206 56.4348C80.3546 57.1802 80.3476 57.9297 80.3997 58.6763Z" fill="#99C26D"/>
</g>
<g style="mix-blend-mode:multiply" opacity="0.4">
<path d="M60.4883 58.3802C60.4883 58.3802 77.489 64.9189 82.8638 63.6713C86.0878 62.9316 89.03 61.2779 91.338 58.9085C91.338 58.9085 91.1131 58.5135 90.7704 57.8858C89.916 57.3159 89.0075 56.8314 88.0582 56.4395H63.721L61.5214 56.9181L60.4883 58.3802Z" fill="#B1C9CB"/>
</g>
<g style="mix-blend-mode:screen" opacity="0.2">
<path d="M52.4766 130.542C52.4766 130.542 84.3646 141.127 89.9304 140.42C95.4962 139.714 104.028 133.189 104.028 133.189L98.7969 118.72C95.7028 120.328 91.212 121.074 86.2739 121.267C76.8582 121.662 65.7763 120.145 59.4939 119.102C59.5593 119.313 59.5959 119.426 59.5959 119.426L52.4766 130.542Z" fill="#B1C9CB"/>
</g>
<path d="M15.9285 120.432C18.1046 118.863 34.5273 101.439 34.5273 101.439C34.7484 100.043 34.5725 98.6141 34.0199 97.314C32.3355 93.3254 27.4994 91.1807 25.2266 91.9392C23.4167 92.5407 18.1988 101.355 14.2415 108.616C11.7254 113.229 9.71413 117.218 9.4055 118.057C8.60778 120.234 13.7524 122.015 15.9285 120.432Z" fill="#99C26D"/>
<path d="M10.3414 146.804L13.8984 146.816L13.9803 123.377L10.4232 123.364L10.3414 146.804Z" fill="#436124"/>
<path d="M5.69531 247.389L11.6168 264.311L17.9384 247.431L15.6211 146.669L8.70574 146.646L5.69531 247.389Z" fill="#E8F177"/>
<g style="mix-blend-mode:screen">
<path d="M11.6342 258.87L14.1163 246.3L12.9812 146.859L11.1739 146.852L9.35352 246.162L11.6342 258.87Z" fill="#B1C9CB"/>
</g>
<path d="M24.1985 146.044L0.0340014 145.96L0 149.023L11.9711 147.451L24.0416 148.926L24.1985 146.044Z" fill="#436124"/>
<path d="M14.8559 146.693C14.8651 146.153 14.7143 145.623 14.4224 145.17C14.1305 144.716 13.7107 144.359 13.216 144.144C12.7213 143.929 12.174 143.866 11.6432 143.961C11.1124 144.057 10.622 144.308 10.2339 144.683C9.84578 145.058 9.57743 145.539 9.46276 146.066C9.34808 146.593 9.39223 147.142 9.58962 147.644C9.78701 148.146 10.1288 148.578 10.5717 148.886C11.0147 149.194 11.539 149.363 12.0783 149.373C12.4367 149.38 12.793 149.316 13.1266 149.185C13.4603 149.053 13.7648 148.858 14.0228 148.609C14.2808 148.36 14.4871 148.062 14.6301 147.734C14.773 147.405 14.8498 147.051 14.8559 146.693Z" fill="#99C26D"/>
<g style="mix-blend-mode:screen" opacity="0.6">
<path d="M34.0187 97.314C32.3343 93.3254 27.4982 91.1807 25.2254 91.9392C23.4154 92.5407 18.1975 101.355 14.2403 108.616C10.6649 119.527 18.8305 113.705 34.0187 97.314Z" fill="#99C26D"/>
</g>
<path d="M12.5534 131.617C12.6355 131.69 12.7229 131.756 12.8149 131.816C12.862 131.855 12.9169 131.886 12.9718 131.926L13.1785 132.035C13.3079 132.111 13.4526 132.157 13.602 132.169C13.7514 132.181 13.9016 132.16 14.0416 132.106C14.6274 131.805 14.5307 128.246 14.5307 128.246C14.635 128.402 14.7609 128.543 14.9047 128.664C15.1662 128.894 15.4984 129.059 15.8149 128.743C16.4164 128.149 17.1043 125.578 17.1043 124.589C17.1043 123.6 16.6048 121.027 15.4173 119.934C13.848 119.515 13.2177 120.417 12.8385 121.723C12.7495 122.015 12.6789 122.324 12.6083 122.641C12.5534 122.886 12.5063 123.14 12.4592 123.402C12.0721 125.476 12.5534 131.617 12.5534 131.617Z" fill="#FFC393"/>
<path d="M6.03398 127.66C6.23275 128.641 8.0139 131.222 8.60762 131.805C8.68904 131.889 8.79252 131.947 8.90599 131.974C9.01945 132.001 9.13822 131.995 9.24841 131.957C9.3747 131.923 9.49477 131.869 9.60412 131.798C9.65991 131.765 9.71323 131.728 9.76367 131.688C9.92257 131.58 10.0691 131.456 10.2005 131.316L8.81424 123.598L9.86044 123.336L10.2005 123.247L12.6224 122.638L12.8996 122.567L13.9458 122.306L15.4314 119.934C13.4541 117.765 9.59889 118.953 8.51346 119.641C7.42803 120.329 6.14121 122.703 5.93459 123.797C5.7728 125.082 5.80631 126.384 6.03398 127.66Z" fill="#FFC393"/>
<path d="M7.51367 124.191C7.51367 124.191 8.00538 126.511 8.59125 128.687C8.85019 129.748 9.18854 130.787 9.60345 131.797C9.67829 131.995 9.78521 132.18 9.91992 132.344C9.93936 132.371 9.96323 132.395 9.99054 132.414C10.5529 132.843 10.9478 133.05 11.1937 132.914C11.2623 132.871 11.3203 132.814 11.3629 132.745C11.4056 132.677 11.4318 132.599 11.4395 132.519C11.455 132.451 11.4655 132.382 11.4709 132.312C11.5101 131.941 11.2983 130.319 11.0367 128.538C10.6967 126.218 10.2521 123.639 10.1972 123.257C10.1955 123.242 10.1955 123.226 10.1972 123.21L8.21985 122.222L7.51367 124.191Z" fill="#FFC393"/>
<path d="M9.69922 122.12C9.69922 122.12 9.73845 122.46 9.81168 123.014C9.82738 123.108 9.84307 123.218 9.85876 123.338C10.1674 125.742 10.8553 130.976 11.0776 131.805C11.1009 131.894 11.1297 131.981 11.1639 132.066V132.082C11.2306 132.239 11.3186 132.386 11.4254 132.519C11.4907 132.606 11.5682 132.684 11.6556 132.749C12.0741 133.105 12.5815 133.136 12.8352 132.731C12.8352 132.731 12.8352 132.715 12.8509 132.707C12.9327 132.454 12.9725 132.189 12.9686 131.922C13.0078 131.399 13.0235 130.664 13.0235 129.83C13.0235 127.4 12.9293 124.107 12.8823 122.572C12.8666 122.049 12.8509 121.725 12.8509 121.725H12.8352L9.69922 122.12Z" fill="#FFC393"/>
<g style="mix-blend-mode:multiply" opacity="0.4">
<path d="M14.5927 123.844L14.543 128.246C14.6472 128.402 14.7732 128.543 14.917 128.664L14.5927 123.844Z" fill="#70432F"/>
</g>
<g style="mix-blend-mode:multiply" opacity="0.4">
<path d="M13.0394 129.828L12.6602 124.498L12.8171 131.821L12.8406 132.729C12.8406 132.729 12.8406 132.713 12.8563 132.705C12.9381 132.452 12.9779 132.187 12.974 131.921L13.1806 132.031L13.0394 129.828Z" fill="#70432F"/>
</g>
<g style="mix-blend-mode:multiply" opacity="0.4">
<path d="M11.6712 132.741L10.9336 125.727L11.0382 128.53L11.1638 132.059V132.074L11.1873 132.906C11.256 132.864 11.3139 132.806 11.3565 132.737C11.3992 132.669 11.4254 132.591 11.4332 132.511C11.5008 132.599 11.581 132.677 11.6712 132.741Z" fill="#70432F"/>
</g>
<g style="mix-blend-mode:multiply" opacity="0.4">
<path d="M8.50977 128.3L8.59085 128.687L9.24733 131.956C9.37362 131.922 9.49369 131.868 9.60304 131.797C9.67789 131.995 9.7848 132.18 9.91952 132.343C9.87244 132.147 9.81751 131.933 9.76259 131.695C9.38072 130.167 8.85239 128.109 8.85239 128.109L8.8027 125.585L8.50977 128.3Z" fill="#70432F"/>
</g>
<path d="M59.0635 28.6893C59.088 29.266 59.1535 29.8403 59.2597 30.4077C59.3486 30.8759 59.4506 31.3728 59.5761 31.888C59.7749 32.6962 60.0208 33.5489 60.298 34.4277C62.087 40.0798 65.1968 46.4982 65.1968 46.4982V46.5139L59.8612 55.4065C59.8612 55.4065 77.0764 62.7299 82.4198 61.3437C85.6748 60.463 88.5774 58.5964 90.7292 56.0002C90.7292 56.0002 86.1783 47.4921 85.9795 45.316C85.8461 43.8434 88.7885 39.112 90.4598 34.5532C90.9492 33.297 91.3 31.9911 91.506 30.6588C91.5528 30.3469 91.5799 30.0324 91.5871 29.7172C91.6094 29.31 91.5902 28.9016 91.5296 28.4984C91.1503 25.9169 89.0135 19.1742 86.1574 12.897C83.1077 6.1804 79.2498 0 75.8811 0C73.4356 0 70.4278 3.25367 67.6423 7.61369C62.9894 14.8795 58.9353 25.2238 59.0635 28.6893Z" fill="#99C26D"/>
<g style="mix-blend-mode:multiply" opacity="0.3">
<path d="M59.2598 30.4076C59.3487 30.8758 59.4507 31.3728 59.5762 31.888C59.775 32.6962 60.0209 33.5488 60.2981 34.4276C62.0871 40.0797 65.1969 46.4981 65.1969 46.4981V46.5138C69.795 48.1433 79.9248 48.4284 85.9796 45.3107C85.8462 43.8382 88.7887 39.1068 90.46 34.548C90.9494 33.2917 91.3002 31.9858 91.5062 30.6535C91.5529 30.3416 91.58 30.0272 91.5873 29.7119L59.2598 30.4076Z" fill="#B1C9CB"/>
</g>
<g style="mix-blend-mode:multiply" opacity="0.4">
<path d="M59.5762 31.8879C59.7749 32.6961 60.0208 33.5487 60.298 34.4276C69.0678 37.3805 83.3143 38.0134 90.452 34.5479C90.9414 33.2916 91.2922 31.9857 91.4982 30.6534C84.2402 30.6011 65.8926 30.6377 59.5762 31.8879Z" fill="#78888A"/>
</g>
<g style="mix-blend-mode:screen" opacity="0.3">
<path d="M67.6426 7.61369C71.9241 9.83686 79.9092 13.407 86.1393 12.8917C83.108 6.1804 79.2501 0 75.8814 0C73.4359 0 70.4281 3.25367 67.6426 7.61369Z" fill="#B1C9CB"/>
</g>
<path d="M76.4731 16.0275C82.0128 15.8941 89.9272 22.1608 91.5096 23.5444C92.5846 24.486 92.697 31.2627 92.2943 32.6463C91.8915 34.0299 85.7555 35.6149 76.8629 35.6149C67.9702 35.6149 59.8465 33.4388 58.8578 32.6463C57.8691 31.8538 58.0732 25.1294 58.659 24.3369C59.2449 23.5444 68.1637 16.2158 76.4731 16.0275Z" fill="#E8F177"/>
<g style="mix-blend-mode:multiply">
<g style="mix-blend-mode:multiply">
<path d="M87.8375 23.9416C88.0456 23.9416 88.2451 24.0242 88.3923 24.1714C88.5394 24.3185 88.6221 24.5181 88.6221 24.7262V31.0583C88.6221 31.2685 88.5386 31.4701 88.39 31.6187C88.2414 31.7673 88.0398 31.8508 87.8296 31.8508C87.6194 31.8508 87.4179 31.7673 87.2692 31.6187C87.1206 31.4701 87.0371 31.2685 87.0371 31.0583V24.7314C87.0364 24.6266 87.0567 24.5227 87.0968 24.4259C87.1369 24.329 87.196 24.2412 87.2706 24.1676C87.3452 24.094 87.4338 24.036 87.5312 23.9972C87.6285 23.9584 87.7327 23.9395 87.8375 23.9416Z" fill="#78888A"/>
</g>
<g style="mix-blend-mode:multiply">
<path d="M83.4917 21.3131C83.5899 21.2781 83.694 21.263 83.7981 21.2688C83.9021 21.2745 84.004 21.3009 84.0978 21.3464C84.1915 21.392 84.2752 21.4557 84.3441 21.534C84.4129 21.6122 84.4655 21.7034 84.4987 21.8021C84.551 21.9486 84.6452 22.2232 84.687 31.9503C84.687 32.1584 84.6043 32.3579 84.4572 32.5051C84.31 32.6522 84.1104 32.7349 83.9023 32.7349C83.6942 32.7349 83.4946 32.6522 83.3475 32.5051C83.2003 32.3579 83.1177 32.1584 83.1177 31.9503C83.1046 28.49 83.0575 22.8327 82.9921 22.2154C82.9523 22.03 82.981 21.8365 83.0728 21.6706C83.1646 21.5047 83.3134 21.3777 83.4917 21.3131Z" fill="#78888A"/>
</g>
<g style="mix-blend-mode:multiply">
<path d="M79.8681 19.587C80.0762 19.587 80.2758 19.6697 80.4229 19.8168C80.5701 19.964 80.6527 20.1636 80.6527 20.3717V32.2094C80.6527 32.4192 80.5694 32.6205 80.421 32.7688C80.2726 32.9172 80.0714 33.0006 79.8615 33.0006C79.6517 33.0006 79.4505 32.9172 79.3021 32.7688C79.1537 32.6205 79.0704 32.4192 79.0704 32.2094V20.3795C79.0693 20.2747 79.0892 20.1707 79.129 20.0738C79.1688 19.9768 79.2276 19.8888 79.302 19.8149C79.3763 19.741 79.4647 19.6828 79.562 19.6437C79.6592 19.6045 79.7633 19.5853 79.8681 19.587Z" fill="#78888A"/>
</g>
<g style="mix-blend-mode:multiply">
<path d="M76.1749 18.5986H76.1906C76.3987 18.5986 76.5983 18.6813 76.7454 18.8284C76.8926 18.9756 76.9752 19.1752 76.9752 19.3833L77.1792 32.3613C77.182 32.4661 77.1638 32.5704 77.1256 32.668C77.0874 32.7657 77.0301 32.8547 76.9569 32.9297C76.8838 33.0048 76.7964 33.0645 76.6998 33.1052C76.6032 33.146 76.4994 33.1669 76.3946 33.1669H76.3815C76.1734 33.1669 75.9738 33.0842 75.8267 32.9371C75.6795 32.7899 75.5969 32.5904 75.5969 32.3823L75.3929 19.4042C75.3901 19.2996 75.4082 19.1956 75.4462 19.0981C75.4842 19.0007 75.5414 18.9118 75.6142 18.8367C75.6871 18.7617 75.7742 18.7019 75.8705 18.6611C75.9668 18.6202 76.0703 18.5989 76.1749 18.5986Z" fill="#78888A"/>
</g>
<g style="mix-blend-mode:multiply">
<path d="M72.5118 19.6865C72.6162 19.6865 72.7195 19.7073 72.8157 19.7477C72.912 19.7881 72.9992 19.8473 73.0722 19.9219C73.1453 19.9964 73.2028 20.0848 73.2413 20.1818C73.2798 20.2788 73.2985 20.3825 73.2964 20.4869L73.1944 31.995C73.1944 32.2031 73.1118 32.4027 72.9646 32.5499C72.8175 32.697 72.6179 32.7797 72.4098 32.7797C72.3054 32.7797 72.2021 32.7589 72.1059 32.7185C72.0096 32.6781 71.9224 32.6189 71.8493 32.5443C71.7763 32.4698 71.7188 32.3814 71.6803 32.2844C71.6418 32.1874 71.6231 32.0837 71.6252 31.9793L71.7298 20.4712C71.7298 20.2635 71.8121 20.0643 71.9587 19.9173C72.1053 19.7702 72.3041 19.6872 72.5118 19.6865Z" fill="#78888A"/>
</g>
<g style="mix-blend-mode:multiply">
<path d="M69.3519 20.6437C69.4549 20.6461 69.5565 20.6687 69.6508 20.7104C69.7451 20.752 69.8303 20.8118 69.9014 20.8864C69.9726 20.961 70.0284 21.0488 70.0656 21.145C70.1028 21.2411 70.1207 21.3436 70.1182 21.4467L70.1418 31.8275C70.137 32.0325 70.0522 32.2274 69.9056 32.3706C69.7589 32.5138 69.5621 32.5939 69.3571 32.5939H69.331C69.227 32.5915 69.1246 32.5685 69.0296 32.5262C68.9346 32.4839 68.8489 32.4232 68.7776 32.3475C68.7063 32.2718 68.6508 32.1827 68.6142 32.0854C68.5776 31.988 68.5608 31.8844 68.5646 31.7805L68.5254 21.41C68.5277 21.3049 68.5511 21.2014 68.5942 21.1055C68.6373 21.0096 68.6993 20.9233 68.7764 20.8519C68.8535 20.7804 68.9441 20.7251 69.043 20.6894C69.1419 20.6536 69.2469 20.6381 69.3519 20.6437Z" fill="#78888A"/>
</g>
<g style="mix-blend-mode:multiply">
<path d="M65.687 22.1276C65.7909 22.1309 65.8932 22.1549 65.9878 22.1982C66.0825 22.2414 66.1675 22.303 66.2381 22.3795C66.3087 22.4559 66.3634 22.5456 66.399 22.6433C66.4346 22.7411 66.4504 22.8449 66.4455 22.9489L66.3801 31.3184C66.374 31.5224 66.2886 31.716 66.1421 31.8581C65.9956 32.0002 65.7995 32.0796 65.5954 32.0795H65.564C65.4601 32.0762 65.3578 32.0522 65.2632 32.0089C65.1686 31.9657 65.0835 31.9041 65.0129 31.8277C64.9423 31.7512 64.8877 31.6615 64.8521 31.5638C64.8165 31.466 64.8007 31.3622 64.8056 31.2583L64.8709 22.8887C64.874 22.785 64.8976 22.6829 64.9403 22.5883C64.9831 22.4937 65.0442 22.4086 65.1201 22.3378C65.196 22.267 65.2852 22.212 65.3825 22.1759C65.4798 22.1398 65.5833 22.1234 65.687 22.1276Z" fill="#78888A"/>
</g>
<g style="mix-blend-mode:multiply">
<path d="M61.5182 24.687C61.5182 24.4789 61.6009 24.2793 61.7481 24.1322C61.8952 23.985 62.0948 23.9023 62.3029 23.9023C62.4075 23.9023 62.511 23.9232 62.6074 23.9638C62.7039 24.0043 62.7912 24.0638 62.8643 24.1386C62.9374 24.2134 62.9948 24.3021 63.0331 24.3994C63.0715 24.4967 63.09 24.6007 63.0875 24.7053L62.9855 30.6425C62.9855 30.8506 62.9029 31.0501 62.7557 31.1973C62.6086 31.3444 62.409 31.4271 62.2009 31.4271C62.0963 31.4271 61.9927 31.4062 61.8963 31.3657C61.7999 31.3251 61.7126 31.2657 61.6395 31.1909C61.5664 31.116 61.509 31.0274 61.4706 30.93C61.4323 30.8327 61.4138 30.7287 61.4162 30.6241L61.5182 24.687Z" fill="#78888A"/>
</g>
</g>
<path d="M28.5234 82.7067C44.1562 80.1356 55.0367 78.3545 59.5876 57.9746L37.8947 65.5961L37.6332 65.6903C37.6332 65.6903 30.5034 73.2098 28.5234 82.7067Z" fill="#99C26D"/>
<g style="mix-blend-mode:multiply" opacity="0.5">
<path d="M28.5234 82.7072C28.5234 82.7072 33.6681 75.9801 38.0229 71.8241C38.0229 71.8241 38.0229 68.7379 37.8947 65.5967L37.6332 65.6908C37.6332 65.6908 30.5034 73.2104 28.5234 82.7072Z" fill="#B1C9CB"/>
</g>
<path d="M38.0238 71.8244C44.4265 71.6099 50.2904 67.4644 54.2869 63.7609C56.2168 61.9881 57.9906 60.0525 59.5885 57.9754C52.4194 50.4795 45.5093 48.1255 41.4344 48.5335C40.5814 48.5896 39.7527 48.841 39.0124 49.2685C35.8451 51.2484 35.0473 61.726 38.0238 71.8244Z" fill="#728D56"/>
<path d="M54.2879 63.7609C56.2178 61.9881 57.9916 60.0525 59.5895 57.9755C52.4204 50.4795 45.5103 48.1255 41.4353 48.5335C35.3256 49.6477 40.6036 60.6485 54.2879 63.7609Z" fill="#99C26D"/>
</g>
<defs>
<clipPath id="clip0_513_12921">
<rect width="161.752" height="311" fill="white"/>
</clipPath>
</defs>
</svg>
