<svg width="100" height="311" viewBox="0 0 100 311" fill="none" xmlns="http://www.w3.org/2000/svg">
<path d="M32.3236 310.68H28.3047V293.039H32.3236V310.68Z" fill="#266877"/>
<path d="M46.4441 294.384L44.8205 297.589C44.8205 297.589 43.0661 296.369 41.2502 296.369C39.8803 296.369 39.154 296.988 39.154 297.952C39.154 298.916 40.8203 299.64 42.8311 300.497C44.7991 301.33 46.9595 302.999 46.9595 305.304C46.9595 309.518 43.755 310.992 40.3076 310.992C37.8938 311.015 35.5484 310.191 33.6797 308.663L35.6905 305.282C35.6905 305.282 38.0404 307.272 40.0085 307.272C40.8844 307.272 42.5533 307.186 42.5533 305.541C42.5533 304.257 40.6707 303.672 38.5772 302.631C36.4836 301.589 35.2178 299.936 35.2178 298.091C35.2178 294.798 38.1259 292.702 40.9698 292.702C42.9193 292.719 44.8217 293.303 46.4441 294.384Z" fill="#266877"/>
<path d="M59.0351 296.567H52.8532V300.075H58.5625V303.603H52.8532V310.68H48.8477V293.039H59.0485L59.0351 296.567Z" fill="#266877"/>
<path d="M68.635 305.699C68.635 309.171 66.6696 311 63.1394 311C61.6006 310.978 60.127 310.375 59.0137 309.312L60.2954 305.956C60.2954 305.956 61.5585 307.152 62.584 307.152C63.7402 307.152 64.6161 306.447 64.6161 304.671V293.039H68.635V305.699Z" fill="#266877"/>
<path d="M64.8548 78.2662C64.8548 78.2662 64.2326 90.5499 41.2193 90.8623C16.3421 91.1988 9.97591 80.755 9.65546 79.2008C9.33502 77.6466 15.0977 77.9564 15.0977 72.2044C15.0977 66.4524 31.7341 39.3962 31.7341 39.3962L49.9167 28.5117L59.4126 35.5161L64.8548 78.2662Z" fill="#5B332F"/>
<path d="M73.0929 91.3752L65.266 58.9248C65.2158 58.6414 65.148 58.3614 65.063 58.0863C64.5377 56.4848 63.4128 55.1489 61.924 54.3587C60.4353 53.5685 58.6984 53.3855 57.0776 53.8479C55.4568 54.3104 54.078 55.3824 53.2304 56.8392C52.3828 58.296 52.1321 60.0244 52.531 61.662L52.4829 61.6753L62.4888 94.5049C62.8217 95.9081 63.6891 97.126 64.9063 97.8994C66.1236 98.6727 67.5946 98.9406 69.0063 98.6458C70.418 98.3511 71.6589 97.5171 72.4651 96.3213C73.2712 95.1255 73.5788 93.6623 73.3225 92.2431C73.2687 91.9483 73.1919 91.6581 73.0929 91.3752Z" fill="#50A9AA"/>
<path d="M31.8106 250.383C34.0083 256.677 39.6855 263.591 39.6855 263.591L44.6284 264.157L49.582 265.38C49.582 265.38 50.821 266.637 49.7342 268.501H37.1514L32.8494 257.78L33.1405 268.501H31.8266L29.1562 255.197C29.1562 255.197 29.4153 252.017 31.8106 250.383Z" fill="#212020"/>
<path d="M31.8105 250.366L34.9616 247.49L38.5185 250.361C38.5185 250.361 42.3559 262.557 44.6177 264.156L40.0994 264.121C40.0994 264.121 34.0083 256.66 31.8105 250.366Z" fill="#FAA284"/>
<path d="M50.0787 190.195L63.7911 189.736L65.7164 130.83L44.6738 131.904L50.0253 189.274L50.0787 190.195Z" fill="#FAA284"/>
<path d="M65.7164 130.83L64.3358 173.489C60.0312 173.575 53.1363 173.628 48.5459 173.27L44.6738 131.917L65.7164 130.83Z" fill="#EE8C72"/>
<path d="M38.8146 250.748L63.2673 191.925C60.5622 190.961 52.8234 188.163 50.356 187.284C44.1073 198.956 42.8923 202.273 39.2099 216.541C37.2578 224.103 36.2057 230.961 34.4646 242.358C34.1575 244.35 33.8317 246.484 33.4766 248.767L38.8173 250.73L38.8146 250.748Z" fill="#FAA284"/>
<path d="M55.4844 140.948H55.674C57.0694 140.876 58.4371 140.531 59.699 139.931C60.9609 139.332 62.0924 138.489 63.0287 137.452C63.965 136.415 64.6879 135.204 65.1561 133.888C65.6243 132.571 65.8286 131.175 65.7574 129.78C65.6033 127 64.3695 124.389 62.3189 122.505C60.2683 120.621 57.563 119.612 54.7794 119.694H54.5925C51.7741 119.812 49.1182 121.045 47.2089 123.122C45.2996 125.198 44.2934 127.948 44.4117 130.767C44.53 133.585 45.763 136.241 47.8396 138.15C49.9161 140.06 52.666 141.066 55.4844 140.948Z" fill="#FAA284"/>
<path d="M54.5387 196.027H54.5521C56.4439 196.026 58.2576 195.273 59.5943 193.934C60.9311 192.595 61.6815 190.781 61.6806 188.889C61.6798 186.997 60.9276 185.183 59.5896 183.846C58.2516 182.508 56.4372 181.757 54.5454 181.757C52.6536 181.757 50.8392 182.508 49.5012 183.846C48.1632 185.183 47.411 186.997 47.4102 188.889C47.4093 190.781 48.1597 192.595 49.4965 193.934C50.8333 195.273 52.6469 196.026 54.5387 196.027Z" fill="#FAA284"/>
<path d="M24.4426 186.718L38.1496 187.294L44.5131 128.701L23.4492 128.186L24.4586 185.794L24.4426 186.718Z" fill="#FAA284"/>
<path d="M23.4492 128.178L44.5131 128.712L39.581 174.108C34.6862 173.881 29.5056 173.478 24.2316 172.821L23.4492 128.178Z" fill="#EE8C72"/>
<path d="M32.4206 250.692L38.1939 187.255C35.3259 187.143 27.1039 186.782 24.4869 186.681C22.0088 199.685 21.8379 203.216 22.5856 217.924C22.9808 225.724 24.0303 232.598 25.766 243.982C26.0704 245.976 26.3962 248.107 26.7407 250.407L32.4206 250.674V250.692Z" fill="#FAA284"/>
<path d="M33.5459 138.021H33.7355C36.5549 138.116 39.2965 137.087 41.357 135.16C43.4175 133.233 44.6282 130.567 44.7227 127.747C44.8173 124.928 43.7879 122.186 41.8611 120.126C39.9343 118.065 37.2679 116.854 34.4485 116.76H34.2589C32.8628 116.713 31.4712 116.942 30.1635 117.433C28.8558 117.924 27.6576 118.667 26.6374 119.621C24.5769 121.548 23.3662 124.215 23.2716 127.034C23.1771 129.854 24.2064 132.595 26.1332 134.656C28.06 136.716 30.7264 137.927 33.5459 138.021Z" fill="#FAA284"/>
<path d="M31.084 193.776H31.1C33.1978 193.774 35.2089 192.939 36.6911 191.454C38.1734 189.97 39.0054 187.957 39.0043 185.859C39.0033 183.762 38.1692 181.75 36.6855 180.267C35.2017 178.784 33.1898 177.951 31.092 177.951C28.9942 177.951 26.9823 178.784 25.4986 180.267C24.0148 181.75 23.1808 183.762 23.1797 185.859C23.1786 187.957 24.0107 189.97 25.4929 191.454C26.9751 192.939 28.9862 193.774 31.084 193.776Z" fill="#FAA284"/>
<path d="M32.9806 250.53C32.9806 250.53 37.9421 268.459 36.1209 268.731H26.2058C26.2058 268.731 24.7264 269.225 26.3313 250.893L29.9443 250.463L32.9806 250.53Z" fill="#212020"/>
<path d="M32.9813 250.407L34.6369 263.972C33.7744 264.156 29.1973 263.257 27.483 264.52C26.7755 259.853 26.3909 255.143 26.332 250.423L29.3976 246.318L32.9813 250.407Z" fill="#FAA284"/>
<path d="M47.4466 141.99H39.6331C23.9153 141.263 21.1888 135.922 20.4785 130.672C20.6441 121.182 22.7056 115.985 27.7873 110.928L60.8439 111.037C66.0805 116.124 67.8804 122.21 67.8804 130.777C67.8804 130.777 67.8403 131.423 67.7709 132.558C64.8068 137.73 58.9026 141.99 47.4466 141.99Z" fill="#FAA284"/>
<path d="M62.3144 112.505C62.3144 112.505 69.0464 117.715 68.1892 133.567C67.332 149.418 68.1892 168.522 68.1892 168.522C68.1892 168.522 37.8991 172.648 21.2894 168.522L19.9782 132.37C19.9782 132.37 18.3226 119.149 26.4646 112.311L62.3144 112.505Z" fill="#165E60"/>
<g style="mix-blend-mode:multiply" opacity="0.09">
<path d="M22.7734 116.813C23.7267 115.105 24.9763 113.58 26.4639 112.311L62.3137 112.505C62.8418 112.959 63.315 113.472 63.7237 114.036C59.1814 115.312 37.829 120.802 22.7734 116.813Z" fill="black"/>
</g>
<g style="mix-blend-mode:multiply" opacity="0.09">
<path d="M22.873 116.81C23.8191 115.107 25.0627 113.586 26.5448 112.321L62.408 112.506C62.9361 112.959 63.4093 113.472 63.8179 114.036C59.2756 115.312 37.926 120.8 22.873 116.81Z" fill="black"/>
</g>
<path d="M17.9457 57.3033C19.0807 54.9907 23.9648 53.6582 27.8956 53.5193L28.1092 53.4739C30.8063 52.9692 34.8653 52.7129 40.1713 52.7129C44.5828 52.7129 49.069 52.8918 52.0571 53.044C58.1643 53.3511 58.1643 53.3511 58.5301 54.0027L58.653 54.2697L58.6823 54.5207C58.7304 54.9587 59.6624 60.198 59.7986 60.7107C60.4465 62.8739 61.4578 64.9112 62.7894 66.735C65.0005 69.7819 67.281 73.411 66.357 77.9747C65.5319 82.0497 63.1285 85.4517 59.876 87.1741C59.0455 90.8325 58.6637 98.2215 58.9921 101.517C59.3045 104.633 61.6064 110.412 62.8348 112.866C63.3128 113.269 48.1477 113.835 44.5347 113.835C38.4557 113.799 32.3889 113.289 26.3895 112.308C27.479 109.584 28.3896 105.341 28.9878 101.372C29.6954 96.6913 29.7221 87.2889 28.1466 83.7854C26.9342 81.0937 25.834 78.3165 24.7686 75.6327C24.0876 73.9184 23.4067 72.2013 22.6937 70.4976C22.3011 69.5496 21.9193 68.599 21.5401 67.6483C21.2926 67.0288 21.0434 66.411 20.7924 65.7951C19.2961 65.0388 18.1582 63.7233 17.6253 62.1337C17.0925 60.5441 17.2076 58.8085 17.9457 57.3033Z" fill="white"/>
<path d="M62.7839 112.452C62.8186 113.827 62.8613 113.675 62.9121 114.487C63.0376 116.479 39.3941 115.304 26.0422 114.997C26.0155 113.731 26.1704 113.632 26.0983 112.195C37.0762 113.034 57.7316 112.577 62.7839 112.452Z" fill="#2D1302"/>
<path d="M61.9336 112.452C61.9683 113.827 62.011 113.675 62.0618 114.487C62.1739 116.257 44.3438 115.526 30.8184 115.125V112.468C42.2022 112.917 57.5488 112.562 61.9336 112.452Z" fill="#472004"/>
<path d="M36.6301 112.626H34.6113V115.457H36.6301V112.626Z" fill="#383635"/>
<path d="M56.886 112.396H54.8672V115.839H56.886V112.396Z" fill="#383635"/>
<path d="M51.7861 115.732H45.4707V112.506H51.7861V115.732ZM50.9503 114.893V113.342H46.3065V114.893H50.9503Z" fill="#B7B7B7"/>
<g style="mix-blend-mode:multiply" opacity="0.12">
<path d="M34.7251 87.081C33.4763 87.0339 32.2935 86.5079 31.4219 85.6123L62.1472 85.631C61.5778 86.1227 60.9616 86.5574 60.3073 86.9288L59.6424 87.0917C52.0292 87.1131 36.3274 87.1504 34.7251 87.081Z" fill="#666666"/>
</g>
<path d="M17.946 57.3038C19.0809 54.9913 23.9651 53.6588 27.8958 53.5199L28.1095 53.4745C29.6035 53.2124 31.1111 53.0341 32.6251 52.9404C36.0191 59.7953 40.1021 71.5903 40.1021 88.7235V181.118C32.4755 180.777 18.7712 178.515 18.7712 178.515C15.0326 144.97 15.4599 129.228 26.1788 108.602C29.7998 101.64 29.1162 87.909 27.7276 83.7966C26.777 81.0007 25.845 78.3277 24.7902 75.644C24.1093 73.9296 23.4283 72.2125 22.7153 70.5088C22.3228 69.5609 21.9409 68.6102 21.5617 67.6595C21.3143 67.04 21.065 66.4223 20.814 65.8063C19.3112 65.0538 18.1666 63.7381 17.6294 62.1456C17.0923 60.5531 17.2061 58.8128 17.946 57.3038Z" fill="#72CBCC"/>
<path d="M35.331 137.378L21.8963 136.157L21.6934 140.227C21.6934 140.227 23.7282 143.282 28.8179 143.282C33.9077 143.282 35.128 140.838 35.128 140.838L35.331 137.378Z" fill="#50A9AA"/>
<path d="M57.6797 79.2806C59.111 73.5447 55.1188 59.9391 52.873 53.0869C58.1524 53.354 58.1737 53.3833 58.5209 54.0029L58.6437 54.2699L58.6731 54.5209C58.7212 54.9588 59.6531 60.1981 59.7893 60.7108C60.4372 62.8741 61.4486 64.9113 62.7801 66.7352C64.9912 69.7821 67.2717 73.4111 66.3478 77.9748C65.5226 82.0498 63.1193 85.4519 59.8668 87.1743C59.0363 90.8327 58.5316 100.013 60.497 104.799C67.1382 121.011 72.9756 117.224 67.7657 180.079C68.0061 180.285 59.306 180.213 55.0628 180.405V105.659C55.0734 100.302 55.725 87.1022 57.6797 79.2806Z" fill="#72CBCC"/>
<path d="M57.207 137.524L68.6362 136.482L68.8098 139.954C68.8098 139.954 67.0767 142.552 62.7481 142.552C58.4194 142.552 57.394 140.461 57.394 140.461L57.207 137.524Z" fill="#50A9AA"/>
<path d="M35.8824 87.4791C35.6431 86.5531 35.6836 85.5769 35.999 84.6739C36.3144 83.771 36.8905 82.9819 37.6543 82.4063C38.4182 81.8307 39.3356 81.4946 40.2905 81.4404C41.2454 81.3862 42.1949 81.6163 43.019 82.1018C43.8431 82.5872 44.5048 83.3061 44.9203 84.1675C45.3359 85.029 45.4866 85.9943 45.3536 86.9414C45.2205 87.8886 44.8096 88.775 44.1728 89.4886C43.536 90.2022 42.7019 90.711 41.776 90.9505C41.161 91.1096 40.5208 91.1461 39.8918 91.0577C39.2628 90.9693 38.6574 90.7579 38.1101 90.4356C37.5628 90.1132 37.0844 89.6862 36.7022 89.1789C36.32 88.6716 36.0414 88.094 35.8824 87.4791Z" fill="#B7BCBC"/>
<path d="M38.0174 86.9258C37.8871 86.4221 37.9091 85.8911 38.0806 85.3999C38.2521 84.9087 38.5655 84.4794 38.981 84.1663C39.3965 83.8533 39.8955 83.6704 40.4149 83.6409C40.9344 83.6115 41.4509 83.7367 41.8991 84.0008C42.3474 84.2649 42.7072 84.656 42.9332 85.1246C43.1592 85.5932 43.2411 86.1184 43.1686 86.6335C43.0961 87.1487 42.8724 87.6308 42.5259 88.0189C42.1794 88.407 41.7256 88.6836 41.2219 88.8137C40.5466 88.9875 39.83 88.8863 39.2293 88.5323C38.6285 88.1784 38.1927 87.6006 38.0174 86.9258Z" fill="#919191"/>
<path d="M39.7411 81.2549L38.4414 81.6436L39.2188 84.2429L40.5185 83.8542L39.7411 81.2549Z" fill="#919191"/>
<path d="M57.067 94.3309C57.2459 94.3015 61.4838 93.5592 63.791 92.1252C64.2851 91.8154 65.452 91.0891 66.6937 80.9096C67.2919 76.0201 67.623 71.2375 67.6257 71.1894L66.2718 71.0986C65.6603 80.0631 64.261 90.2105 63.0674 90.9742C60.9845 92.2694 56.8748 92.9877 56.832 92.9957L57.067 94.3309Z" fill="#898989"/>
<path d="M67.7301 95.5246L68.3016 94.2963C68.2589 94.2749 63.9569 92.2694 62.7632 91.5752C62.0102 90.4215 59.8258 80.3035 58.1301 71.2402L56.7949 71.4913C56.7949 71.5393 57.7482 76.565 58.8164 81.6253C61.0355 92.1172 61.5882 92.451 61.9941 92.694C63.1371 93.383 67.5405 95.4392 67.7301 95.5246Z" fill="#898989"/>
<path d="M62.341 64.0889C63.6306 64.1149 64.8614 64.6338 65.7804 65.5389C67.9942 67.7446 67.7966 71.6273 67.7885 71.7929L66.0955 71.6941C66.1463 70.7888 65.978 68.1291 64.5841 66.7379C63.8604 66.0195 62.8991 65.7044 61.6467 65.7819C60.3943 65.8593 59.5504 66.2652 58.9763 67.037C57.6411 68.8555 58.4422 72.0733 58.4422 72.1107L56.7973 72.5299C56.7572 72.367 55.8066 68.5244 57.5984 66.0489C58.3283 65.0672 59.4132 64.4097 60.6213 64.217L62.341 64.0889Z" fill="#4F4F4F"/>
<path d="M55.0932 94.0989C55.1169 94.2231 55.1648 94.3414 55.2343 94.4471C55.3038 94.5527 55.3935 94.6436 55.4982 94.7146C55.6028 94.7855 55.7205 94.8351 55.8444 94.8605C55.9683 94.8859 56.0959 94.8866 56.2201 94.8626L56.9972 94.7131C57.1211 94.6891 57.2392 94.6409 57.3445 94.5713C57.4499 94.5017 57.5405 94.412 57.6111 94.3073C57.6818 94.2027 57.7312 94.0851 57.7564 93.9614C57.7817 93.8376 57.7823 93.7102 57.7582 93.5862L57.6728 93.1429C57.6488 93.0189 57.6006 92.9009 57.531 92.7955C57.4613 92.6902 57.3716 92.5996 57.267 92.5289C57.1623 92.4583 57.0448 92.4089 56.9211 92.3836C56.7973 92.3584 56.6698 92.3578 56.5459 92.3819L55.7715 92.5314C55.6472 92.5551 55.5289 92.603 55.4233 92.6725C55.3176 92.742 55.2267 92.8317 55.1558 92.9364C55.0848 93.0411 55.0352 93.1587 55.0098 93.2826C54.9844 93.4065 54.9837 93.5341 55.0077 93.6583L55.0932 94.0989Z" fill="#B7BCBC"/>
<path d="M66.6604 94.7343C66.58 94.9765 66.599 95.2407 66.7131 95.469C66.8272 95.6973 67.0272 95.871 67.2692 95.952L68.0196 96.2003C68.2611 96.2807 68.5247 96.2621 68.7524 96.1484C68.9802 96.0348 69.1536 95.8355 69.2346 95.5942L69.3788 95.1669C69.419 95.047 69.4351 94.9203 69.4262 94.7942C69.4173 94.668 69.3836 94.5448 69.3271 94.4317C69.2705 94.3186 69.1922 94.2177 69.0966 94.135C69.001 94.0522 68.89 93.989 68.77 93.9492L68.0223 93.6982C67.9023 93.658 67.7757 93.6419 67.6495 93.6508C67.5234 93.6597 67.4002 93.6934 67.2871 93.7499C67.174 93.8065 67.0731 93.8848 66.9903 93.9804C66.9075 94.076 66.8444 94.187 66.8046 94.307L66.6604 94.7343Z" fill="#B7BCBC"/>
<path d="M40.1739 81.4461C40.1739 81.4461 39.8749 80.7572 39.3942 79.5368C38.9109 78.3164 38.2459 76.5727 37.5249 74.4871C36.0829 70.3133 34.4139 64.7643 33.506 59.3114C33.41 58.7521 33.3609 58.1858 33.3591 57.6183C33.3196 56.5479 33.5903 55.4888 34.1389 54.5688C34.6259 53.8202 35.3033 53.2147 36.1016 52.8143C37.7279 51.9465 39.9389 51.6848 41.7414 51.6901C42.7386 51.69 43.7344 51.7605 44.7216 51.9011L44.9486 51.9358L45.0233 51.9491H45.1088C53.2428 52.1708 57.0507 55.2791 59.0268 58.3126C60.2193 60.173 60.9068 62.3118 61.0216 64.5186V64.5426H61.9322L62.9549 64.6788C62.9579 64.6335 62.9579 64.588 62.9549 64.5426C62.8513 61.9513 62.0555 59.435 60.6504 57.2552C58.3912 53.7009 53.7848 50.2 45.2049 49.9971C44.0561 49.8207 42.8957 49.7314 41.7334 49.73C40.0747 49.7075 38.422 49.9343 36.8306 50.403C35.1616 50.9371 33.53 51.877 32.4913 53.5193C31.7519 54.754 31.3813 56.1745 31.4231 57.613C31.4263 58.2878 31.4843 58.9611 31.5967 59.6265C33.466 70.8581 38.3821 82.1778 38.3955 82.2152L40.19 81.4408L40.1739 81.4461Z" fill="#4F4F4F"/>
<path d="M49.1934 49.9495C49.1934 49.9495 42.9954 48.2592 38.64 49.9495L38.1914 53.2608L50.1627 53.8242L49.1934 49.9495Z" fill="#A8ADAD"/>
<path d="M40.0195 57.3359L48.3404 57.2023L47.6248 42.9238H41.3868L40.0195 57.3359Z" fill="#EE8C72"/>
<path d="M51.7875 52.9561L48.8928 61.042L45.197 58.3636L41.1834 61.7095L36.2539 52.9561L45.0394 56.6999L51.7875 52.9561Z" fill="#72CBCC"/>
<path d="M49.1915 49.9492L51.7871 52.9561L48.5319 59.5038L45.0391 56.6999L49.1915 49.9492Z" fill="white"/>
<path d="M38.6386 49.9492L36.2539 52.9561L41.5706 60.1955L45.0394 56.6999L38.6386 49.9492Z" fill="white"/>
<path d="M10.4613 93.196L28.3101 64.9888C28.4786 64.755 28.632 64.5106 28.7694 64.2571C29.5703 62.7643 29.7585 61.0184 29.2942 59.3892C28.8299 57.76 27.7496 56.3755 26.2821 55.5291C24.8146 54.6827 23.0753 54.4409 21.4326 54.8548C19.7899 55.2688 18.3729 56.306 17.4817 57.7468L17.439 57.7227L0.834594 87.7698C0.0789807 88.9855 -0.176625 90.4465 0.121371 91.8465C0.419368 93.2465 1.24782 94.4768 2.43303 95.2793C3.61823 96.0819 5.06813 96.3944 6.47872 96.1514C7.88931 95.9084 9.15103 95.1287 9.99933 93.9758C10.1734 93.7283 10.3279 93.4676 10.4613 93.196Z" fill="#72CBCC"/>
<path d="M43.6592 97.2846C40.5242 97.4849 19.981 98.5611 5.17373 96.0376H5.15236H5.13367C3.90213 95.9339 2.75078 95.3842 1.89575 94.4919C1.04072 93.5995 0.540818 92.4257 0.489884 91.1908C0.484539 90.9742 0.492565 90.7575 0.513918 90.5419C0.570084 89.8774 0.756711 89.2304 1.06312 88.6381C1.36953 88.0457 1.78972 87.5196 2.29965 87.0898C2.80957 86.66 3.39923 86.3349 4.03489 86.1332C4.67056 85.9315 5.33976 85.857 6.00421 85.9142C6.29795 85.9302 33.9043 87.3722 44.0784 91.4365L43.6592 97.2846Z" fill="#FAA284"/>
<path d="M38.4114 97.4684L38.9454 89.8872C38.9187 89.5641 38.2431 89.3692 38.2431 89.3692C25.8312 86.5519 6.03572 85.4517 6.03572 85.4517C5.30933 85.3867 4.57726 85.4659 3.88153 85.6845C3.1858 85.9032 2.54011 86.2572 1.98152 86.7261C1.42294 87.1949 0.962459 87.7695 0.626513 88.4168C0.290567 89.0641 0.0857727 89.7714 0.0238846 90.4981C-0.0380036 91.2247 0.0442334 91.9564 0.265875 92.6512C0.487516 93.346 0.844198 93.9902 1.31545 94.5468C1.78669 95.1034 2.36323 95.5614 3.01196 95.8946C3.66068 96.2278 4.36883 96.4296 5.09574 96.4884C15.9081 98.3336 29.6632 98.2241 37.6503 97.9491C37.6503 97.9517 38.3606 98.0532 38.4114 97.4684Z" fill="#72CBCC"/>
<path d="M50.3006 77.7109L56.5172 95.5037L56.3517 98.3877L54.4263 96.2353L48.207 78.4426L50.3006 77.7109Z" fill="#999999"/>
<path d="M53.5362 96.2746L54.6044 93.3078C54.6044 93.3078 55.2426 93.5001 56.26 92.3011L55.4589 91.1956C55.4589 91.1956 56.1505 90.1007 55.6218 89.2889C55.0931 88.4771 51.432 84.9656 48.9459 84.8214C46.4597 84.6772 42.0563 92.1569 42.0563 92.1569C42.0563 92.1569 40.5155 96.3361 44.1152 97.3428C47.7148 98.3495 48.9886 96.5096 48.9886 96.5096C48.9886 96.5096 52.4975 99.0144 53.5362 96.2746Z" fill="#FAA284"/>
<path d="M99.5556 81.4301L98.8213 80.3727L70.5607 80.0469L60.3145 115.587L61.1877 116.562L71.9439 82.2419L99.5556 81.4301Z" fill="#6294A3"/>
<path d="M99.5555 81.3926H71.2094L61.1875 116.524H89.4561L99.5555 81.3926Z" fill="#77ABBF"/>
<path d="M85.8734 101.885H86.055C86.055 101.885 92.6989 101.77 93.3665 101.741L91.1928 101.207C91.1928 101.207 86.3541 101.896 86.0283 100.86V100.7C86.0283 100.166 86.6825 99.7223 87.1792 99.6555H87.2113C87.2113 99.6555 90.7655 98.9398 91.5266 98.9665C92.2876 98.9933 94.966 99.6422 94.966 99.6422C95.4868 99.6422 95.8019 100.117 95.8019 100.71V100.871C95.8321 101.117 95.7805 101.367 95.655 101.581H95.6977C95.6043 101.725 95.7191 102.067 95.7191 102.067H95.6416C95.791 102.125 95.9184 102.228 96.0056 102.362C96.0929 102.496 96.1356 102.655 96.1276 102.815V102.977C96.1241 103.196 96.063 103.41 95.9505 103.597C95.838 103.785 95.678 103.94 95.4868 104.046C95.4868 104.046 95.5241 104.046 95.5188 104.046C95.1182 104.358 95.3452 104.55 95.3452 104.55C95.4488 104.638 95.5303 104.748 95.5829 104.873C95.6543 105.081 95.6622 105.304 95.6056 105.516C95.549 105.728 95.4304 105.918 95.2651 106.062C95.1034 106.191 94.9144 106.283 94.7123 106.329C94.561 106.377 94.4326 106.48 94.3515 106.617C94.2703 106.753 94.242 106.915 94.2717 107.071C94.3027 107.132 94.3217 107.198 94.3278 107.266C94.3265 107.408 94.2952 107.549 94.2358 107.678C94.1764 107.807 94.0904 107.923 93.9833 108.016C93.6456 108.272 93.2348 108.414 92.811 108.42C92.5093 108.42 92.2102 108.398 91.9111 108.404C90.8056 108.404 89.6974 108.404 88.5918 108.404H87.7053C87.2994 108.404 86.6692 107.856 86.6692 107.349V107.207C86.6692 106.7 87.3822 106.406 87.7907 106.406H87.003C86.4849 106.406 85.6918 105.808 85.6918 105.223V105.06C85.6918 104.476 86.5677 104.128 87.0831 104.128H85.8627C85.2432 104.128 84.3887 103.76 84.3887 103.175V102.809C84.3994 102.232 85.2539 101.885 85.8734 101.885Z" fill="#FAA284"/>
<path d="M94.4497 98.8942L97.4405 88.624L89.7819 81.3926H73.8184L94.4497 98.8942Z" fill="#92BECC"/>
<path d="M56.8262 24.872C56.8262 24.872 61.8999 23.0856 61.8999 28.1646C61.8999 33.2437 56.8262 31.7322 56.8262 31.7322V24.872Z" fill="#EE8C72"/>
<path d="M59.8791 30.9977C59.8791 30.9977 62.3652 46.2349 65.0089 53.079C67.6526 59.9232 72.0079 69.8704 68.1199 74.5355C68.1199 74.5355 67.8074 70.0279 66.563 68.6286C66.563 68.6286 67.3428 75.3046 64.854 78.266C64.854 78.266 64.5442 73.6035 63.1423 72.2043C61.7403 70.805 58.7896 63.4962 58.6347 55.5652C58.4798 47.6341 58.3223 23.0693 58.3223 23.0693L59.8791 30.9977Z" fill="#7E4A43"/>
<path d="M31.041 31.4033C31.041 39.7162 37.303 46.4563 45.0204 46.4563C52.7405 46.4643 58.9945 39.7162 58.9945 31.4033L57.5312 18.0969C57.5312 9.78131 52.8099 7.59961 45.0925 7.59961C37.3725 7.59961 32.1092 9.70387 32.1092 18.0141L31.041 31.4033Z" fill="#F7A184"/>
<path d="M53.1918 13.2715C49.9259 11.4022 49.6162 12.8042 48.0593 12.9617C46.5025 13.1193 42.9295 14.5159 41.2178 13.4264C40.2298 12.7988 36.2883 13.5278 32.1172 17.8672C32.1839 9.6825 37.4259 7.59961 45.0952 7.59961C51.4026 7.59961 55.702 9.06031 57.0665 14.1287C55.7192 14.2234 54.3734 13.9256 53.1918 13.2715Z" fill="#EE8C72"/>
<path d="M45.6037 45.0574C38.3777 45.0574 32.4308 39.1479 31.7178 31.5693L31.0742 31.7723C31.2558 39.9116 37.4324 46.4594 45.0349 46.4594C50.9632 46.4594 56.0182 42.4778 58.0504 36.8674C55.7191 41.7248 51.0273 45.0574 45.6037 45.0574Z" fill="#EE8C72"/>
<path d="M49.3053 11.5627C49.3053 11.5627 47.7618 10.8817 41.6867 10.628C37.9482 10.4732 36.5543 14.2063 36.3994 17.6271C36.2445 21.0478 36.2445 41.4175 30.4925 46.5473C24.7405 51.6771 18.6734 64.583 20.8498 72.6689C20.8498 72.6689 18.2088 70.0279 18.2088 67.2267C18.2088 67.2267 19.2956 78.1111 9.66357 78.7333C9.66357 78.7333 13.5516 76.8641 12.4621 73.2911C11.5328 70.2362 8.11476 68.8155 6.48049 66.1879C2.50964 59.8164 4.99843 51.6317 12.1444 49.3458C19.9178 46.8597 25.2052 43.1265 25.8274 32.2554C26.3134 23.7102 14.9349 7.98703 32.2016 2.07749C37.0082 0.435205 43.2142 -0.907994 48.0235 0.777014C48.4348 0.921214 51.455 2.64628 51.6366 2.5448C51.6366 2.5448 52.8008 1.83181 54.9024 2.85457C57.936 4.33128 59.3353 6.51031 60.0349 12.1074C60.5823 16.4975 60.1898 34.576 60.1898 34.576L58.3205 25.0908L57.3939 16.6925C57.3939 16.6925 57.2363 12.8177 55.2149 11.5627C53.1934 10.3076 52.881 10.9485 49.3053 11.5627Z" fill="#7E4A43"/>
<path d="M31.9917 24.872C31.9917 24.872 26.918 23.0856 26.918 28.1646C26.918 33.2437 31.9917 31.7322 31.9917 31.7322V24.872Z" fill="#F7A184"/>
<path d="M48.3413 27.9398C49.9729 27.833 50.2106 34.0416 49.5857 33.9963C48.9609 33.9509 45.946 34.7199 46.4267 32.6611C46.918 30.5541 46.8513 28.0386 48.3413 27.9398Z" fill="#EE8C72"/>
<path d="M47.7978 30.4072L36.8652 31.5955C36.8652 31.5955 36.8652 38.1834 37.5996 41.1742C37.5996 41.1742 40.6171 47.5217 47.253 47.1024C47.253 47.1024 55.9477 47.6525 58.2176 38.3836C58.3584 36.1064 58.3406 33.8222 58.1642 31.5475L47.7978 30.4072Z" fill="#C7F4F9"/>
<path d="M37.3816 32.1192L35.7394 29.6865L35.6699 30.3461L37.1173 32.3355L37.3816 32.1192Z" fill="#C7F4F9"/>
<path d="M38.2943 41.2387L34.9082 35.7217L34.8281 36.1463L38.0433 41.4737L38.2943 41.2387Z" fill="#C7F4F9"/>
<path d="M58.828 29.8443L58.7345 28.9043L57.8105 32.2476L58.1096 32.3731L58.828 29.8443Z" fill="#C7F4F9"/>
<path d="M58.5915 35.8253L58.8532 33.5742L57.8945 38.3355L58.1776 38.5091L58.5915 35.8253Z" fill="#C7F4F9"/>
<path d="M47.7992 31.2803L37.9375 32.4659C37.9375 32.4659 37.9375 38.2713 38.5998 40.9657C38.5998 40.9657 41.3155 46.6777 47.2865 46.3065C47.2865 46.3065 55.1134 46.7978 57.1669 38.4582C57.2948 36.4507 57.2787 34.4365 57.1188 32.4312L47.7992 31.2803Z" fill="#9EEEF2"/>
<g style="mix-blend-mode:multiply" opacity="0.07">
<path d="M37.9375 32.4659L47.7992 31.2803L57.1082 32.4259C57.1856 33.2029 57.223 34.0121 57.2363 34.0281H37.9803C37.9349 33.4406 37.9375 32.4659 37.9375 32.4659Z" fill="black"/>
</g>
<g style="mix-blend-mode:multiply" opacity="0.07">
<path d="M47.2855 46.3013C43.6404 46.5309 41.2104 44.4908 39.8672 42.8672H55.0323C51.964 46.5924 47.2855 46.3013 47.2855 46.3013Z" fill="black"/>
</g>
<g style="mix-blend-mode:multiply" opacity="0.07">
<path d="M37.9609 33.7266H57.2224C57.2517 34.6639 57.2464 35.5958 57.2224 36.3969H38.0624C38.0117 35.4276 37.9796 34.4903 37.9609 33.7266Z" fill="black"/>
</g>
<g style="mix-blend-mode:multiply" opacity="0.07">
<path d="M57.155 38.4529C57.0402 38.9215 56.8993 39.3833 56.7331 39.8362H38.3823C38.2175 38.5966 38.1284 37.3481 38.1152 36.0977H57.2111C57.1844 37.9482 57.155 38.4529 57.155 38.4529Z" fill="black"/>
</g>
<g style="mix-blend-mode:multiply" opacity="0.07">
<path d="M54.6694 43.2841H40.228C39.5849 42.587 39.0371 41.8075 38.5991 40.9663C38.4818 40.4669 38.3926 39.9615 38.332 39.4521L56.8591 39.4869C56.0393 41.7326 55.329 42.5738 54.6694 43.2841Z" fill="black"/>
</g>
<g style="mix-blend-mode:multiply" opacity="0.07">
<g style="mix-blend-mode:multiply" opacity="0.07">
<path d="M36.8653 31.5955L47.7978 30.4072H47.8619V47.0944C47.4773 47.1078 47.253 47.0944 47.253 47.0944C40.6171 47.5137 37.5996 41.1662 37.5996 41.1662C36.8519 38.186 36.8653 31.5955 36.8653 31.5955Z" fill="black"/>
</g>
</g>
<path d="M43.5231 22.7893C42.0146 22.3007 40.3904 22.3007 38.882 22.7893C38.7713 22.8253 38.6689 22.8831 38.5809 22.9592C38.4928 23.0353 38.4209 23.1283 38.3693 23.2326C38.265 23.4407 38.2468 23.6814 38.3185 23.9029C38.353 24.0128 38.4091 24.1148 38.4835 24.2028C38.558 24.2908 38.6492 24.3631 38.752 24.4153C38.8547 24.4675 38.9669 24.4987 39.0818 24.507C39.1968 24.5153 39.3122 24.5006 39.4214 24.4636C40.5783 24.0885 41.8241 24.0885 42.981 24.4636C43.2016 24.5345 43.4413 24.5153 43.6479 24.4103C43.8545 24.3053 44.0112 24.1229 44.0839 23.9029C44.1221 23.794 44.138 23.6785 44.1307 23.5634C44.1233 23.4482 44.0929 23.3357 44.0412 23.2326C43.9887 23.1279 43.9158 23.0348 43.8269 22.9587C43.7379 22.8825 43.6346 22.825 43.5231 22.7893Z" fill="#7E4A43"/>
<path d="M55.4554 22.7893C53.9461 22.3007 52.321 22.3007 50.8116 22.7893C50.6007 22.8681 50.4283 23.0251 50.33 23.2276C50.2317 23.4302 50.2153 23.6628 50.284 23.8772C50.3527 24.0916 50.5013 24.2713 50.699 24.379C50.8967 24.4867 51.1283 24.5142 51.3457 24.4557C52.5028 24.0818 53.7482 24.0818 54.9053 24.4557C54.9915 24.4843 55.0816 24.4996 55.1724 24.5011C55.3575 24.501 55.5378 24.4423 55.6875 24.3334C55.8372 24.2245 55.9485 24.071 56.0055 23.8949C56.0777 23.6753 56.0604 23.4361 55.9575 23.2292C55.8545 23.0222 55.6741 22.8642 55.4554 22.7893Z" fill="#7E4A43"/>
<path d="M40.9512 28.0893C40.9512 29.1414 41.4479 29.9932 42.0567 29.9932C42.6656 29.9932 43.1622 29.1414 43.1622 28.0893C43.1622 27.0371 42.6682 26.1826 42.0567 26.1826C41.4452 26.1826 40.9512 27.0345 40.9512 28.0893Z" fill="#602C05"/>
<path d="M53.9994 28.0893C53.9994 29.1414 53.5027 29.9932 52.8966 29.9932C52.2904 29.9932 51.791 29.1414 51.791 28.0893C51.791 27.0371 52.285 26.1826 52.8966 26.1826C53.5081 26.1826 53.9994 27.0345 53.9994 28.0893Z" fill="#602C05"/>
</svg>
