<svg width="90" height="311" viewBox="0 0 90 311" fill="none" xmlns="http://www.w3.org/2000/svg">
<path d="M37.2455 310.682H33.2754V293.195H37.2455V310.682Z" fill="#266877"/>
<path d="M51.2362 294.532L49.6243 297.708C49.6243 297.708 47.8881 296.501 46.0856 296.501C44.7305 296.501 44.0079 297.115 44.0079 298.068C44.0079 299.021 45.6621 299.743 47.6551 300.59C49.6032 301.416 51.7444 303.07 51.7444 305.354C51.7444 309.528 48.5683 310.992 45.1539 310.992C42.7603 311.015 40.4343 310.198 38.582 308.681L40.575 305.333C40.575 305.333 42.9068 307.305 44.8575 307.305C45.7256 307.305 47.3772 307.218 47.3772 305.587C47.3772 304.314 45.5245 303.735 43.4362 302.705C41.3479 301.675 40.1092 300.034 40.1092 298.205C40.1092 294.942 42.9915 292.864 45.8103 292.864C47.7426 292.881 49.6281 293.46 51.2362 294.532Z" fill="#266877"/>
<path d="M51.4902 293.195H63.7924V296.702H59.637V310.69H55.6457V296.702H51.4902V293.195Z" fill="#266877"/>
<path d="M72.8358 305.744C72.8358 309.184 70.8851 311 67.3888 311C65.8624 310.977 64.4009 310.379 63.2969 309.325L64.57 305.998C64.57 305.998 65.8192 307.183 66.8382 307.183C67.9816 307.183 68.8498 306.485 68.8498 304.727V293.195H72.8358V305.744Z" fill="#266877"/>
<path d="M28.8548 59.8164C28.8548 59.8164 20.0543 64.5038 17.127 99.8196L28.8548 101.31C28.8548 101.31 36.8348 64.5806 28.8548 59.8164Z" fill="#50A9AA"/>
<path d="M67.4398 264.253H85.3187C85.3187 264.253 86.3774 259.383 82.6376 253.11L70.5921 253.319C70.5921 253.319 67.1275 258.295 67.4398 264.253Z" fill="#964E3B"/>
<path d="M85.4739 264.253H67.5977V267.074H85.4739V264.253Z" fill="#CC9169"/>
<path d="M83.1142 259.046C83.1142 260.269 80.0969 261.259 76.3702 261.259C72.6436 261.259 69.6289 260.269 69.6289 259.046C69.6289 257.824 72.6489 256.831 76.3702 256.831C80.0916 256.831 83.1142 257.821 83.1142 259.046Z" fill="#BC7668"/>
<path d="M79.8319 256.098C79.8319 256.264 79.7659 256.424 79.6482 256.542C79.5306 256.659 79.371 256.725 79.2047 256.725H73.8714C73.7051 256.725 73.5455 256.659 73.4279 256.542C73.3102 256.424 73.2441 256.264 73.2441 256.098C73.2441 255.932 73.3102 255.772 73.4279 255.654C73.5455 255.537 73.7051 255.471 73.8714 255.471H79.2047C79.287 255.471 79.3686 255.487 79.4447 255.518C79.5208 255.55 79.59 255.596 79.6482 255.654C79.7065 255.713 79.7527 255.782 79.7842 255.858C79.8157 255.934 79.8319 256.016 79.8319 256.098Z" fill="#CEA97C"/>
<path d="M79.8319 253.904C79.8319 254.07 79.7659 254.23 79.6482 254.347C79.5306 254.465 79.371 254.531 79.2047 254.531H73.8714C73.7051 254.531 73.5455 254.465 73.4279 254.347C73.3102 254.23 73.2441 254.07 73.2441 253.904C73.2441 253.737 73.3102 253.578 73.4279 253.46C73.5455 253.342 73.7051 253.276 73.8714 253.276H79.2047C79.287 253.276 79.3686 253.293 79.4447 253.324C79.5208 253.356 79.59 253.402 79.6482 253.46C79.7065 253.518 79.7527 253.588 79.7842 253.664C79.8157 253.74 79.8319 253.821 79.8319 253.904Z" fill="#CEA97C"/>
<path d="M44.2743 251.707C44.2743 251.707 45.6585 258.914 44.613 263.932H10.9489C10.9489 263.932 9.80015 256.521 24.4473 256.543L33.8354 250.19L44.2743 251.707Z" fill="#964E3B"/>
<path d="M44.7035 266.807L11.1426 266.619V263.94H44.7035V266.807Z" fill="#CC9169"/>
<path d="M23.492 256.606C23.492 256.606 23.0659 261.683 11.4492 261.437C11.4492 261.437 13.1828 256.606 23.492 256.606Z" fill="#BC7668"/>
<path d="M33.7402 263.941C33.7402 263.941 34.0658 255.418 44.7772 255.365C44.7772 255.365 45.3463 261.117 44.5126 263.941H33.7402Z" fill="#7F3F32"/>
<path d="M28.0154 258.589C27.8576 258.589 27.7056 258.529 27.5893 258.422L24.6779 255.741C24.5557 255.628 24.4835 255.471 24.477 255.305C24.4706 255.139 24.5304 254.977 24.6435 254.855C24.7565 254.733 24.9134 254.66 25.0797 254.654C25.246 254.647 25.408 254.707 25.5301 254.82L28.4416 257.501C28.5342 257.587 28.5988 257.699 28.6271 257.822C28.6553 257.945 28.6458 258.073 28.5997 258.191C28.5537 258.308 28.4733 258.409 28.3691 258.48C28.2649 258.551 28.1416 258.589 28.0154 258.589Z" fill="#CEA97C"/>
<path d="M30.8398 256.694C30.6817 256.694 30.5294 256.635 30.4137 256.527L27.5022 253.846C27.4371 253.791 27.3837 253.724 27.3452 253.648C27.3068 253.573 27.2841 253.49 27.2787 253.405C27.2732 253.32 27.2849 253.235 27.3133 253.155C27.3416 253.075 27.386 253.002 27.4435 252.939C27.5011 252.877 27.5708 252.827 27.6483 252.792C27.7259 252.757 27.8096 252.739 27.8946 252.737C27.9795 252.736 28.0638 252.752 28.1424 252.784C28.221 252.816 28.2923 252.864 28.3518 252.925L31.2633 255.606C31.3559 255.692 31.4206 255.803 31.4488 255.926C31.477 256.049 31.4675 256.178 31.4215 256.295C31.3754 256.413 31.2951 256.514 31.1908 256.585C31.0866 256.656 30.9633 256.694 30.8372 256.694H30.8398Z" fill="#CEA97C"/>
<path d="M33.3536 254.812C33.1955 254.812 33.0431 254.753 32.9274 254.645L30.016 251.964C29.903 251.849 29.8386 251.695 29.836 251.534C29.8334 251.373 29.8929 251.217 30.0021 251.098C30.1114 250.98 30.2619 250.908 30.4227 250.898C30.5834 250.887 30.742 250.939 30.8656 251.043L33.7771 253.724C33.8697 253.809 33.9343 253.921 33.9625 254.044C33.9908 254.167 33.9812 254.296 33.9352 254.413C33.8892 254.531 33.8088 254.631 33.7046 254.703C33.6003 254.774 33.4771 254.812 33.3509 254.812H33.3536Z" fill="#CEA97C"/>
<path d="M28.0952 128.593C28.0952 128.593 26.0863 176.383 28.3281 251.763C28.3281 251.763 35.1594 258.61 44.701 253.848C44.701 253.848 48.4435 174.514 49.7299 153.16C49.7299 153.16 58.316 200.783 67.3441 253.3C67.3441 253.3 76.9518 257.731 83.2855 252.392C83.2855 252.392 76.2425 171.047 71.9494 130.75C71.9494 130.75 45.2648 134.27 28.0952 128.593Z" fill="#369496"/>
<path d="M71.95 130.75C71.95 130.75 45.2654 134.27 28.0958 128.593C28.0958 128.593 28.0058 130.71 27.8867 134.746C35.7476 139.81 53.0045 149.46 74.1522 152.43C73.374 144.513 72.6276 137.102 71.95 130.75Z" fill="#165E60"/>
<path d="M49.729 153.161C49.729 153.161 41.6405 149.405 39.2399 146.226C36.8393 143.047 45.2639 165.045 48.9694 168.504L49.729 153.161Z" fill="#165E60"/>
<path d="M28.8541 59.817C28.8541 59.817 27.9489 71.7512 28.0865 128.598C28.0865 128.598 42.7655 135.718 71.9407 130.756C71.9407 130.756 72.0095 113.689 76.0909 98.5074C76.0909 98.5074 83.4806 69.9806 79.746 61.6327C79.754 61.6274 58.8737 47.4857 28.8541 59.817Z" fill="#72CBCC"/>
<path d="M28.095 106.683C28.0765 113.117 28.0738 120.385 28.095 128.593C28.095 128.593 42.7739 135.712 71.9492 130.75C71.9492 130.75 72.018 113.683 76.0993 98.5015C76.0993 98.5015 79.4078 85.7336 80.4771 74.7812C70.8958 86.8426 53.6362 102.996 28.095 106.683Z" fill="#50A9AA"/>
<path d="M65.3633 247.787L66.6364 254.785C66.6364 254.785 76.3791 257.988 84.8488 252.758V245.749C84.8488 245.749 75.1907 249.825 65.3633 247.787Z" fill="#165E60"/>
<path d="M46.2829 247.422L45.9097 254.812C45.9097 254.812 37.1754 259.234 27.4512 252.125V244.598C27.4512 244.598 34.1025 248.049 46.2829 247.422Z" fill="#165E60"/>
<path d="M48.9285 54.1445L48.8809 56.4366C48.8809 56.4366 50.9268 58.8584 55.3945 58.6837C59.8623 58.509 61.715 55.9125 61.715 55.9125L61.5721 50.0605C56.3447 52.8635 51.1306 54.2583 48.9285 54.1445Z" fill="#F4A984"/>
<path d="M61.5717 50.0607L61.27 42.2871L48.4199 42.7873L48.9281 54.1446C51.1302 54.2584 56.3443 52.8636 61.5717 50.0607Z" fill="#D88D6C"/>
<path d="M48.7407 52.8979C49.1042 54.1582 49.7399 55.3234 50.6029 56.3112C51.4658 57.299 52.5351 58.0854 53.7351 58.6149C53.7351 58.6149 61.1725 56.8866 61.7125 51.8789L65.7964 56.0687C65.7964 56.0687 63.4302 63.2362 57.4935 65.4489L53.788 59.7927L48.7592 64.459C48.7592 64.459 44.0718 59.086 44.4714 55.4388L48.7407 52.8979Z" fill="#165E60"/>
<path d="M4.3986 125.933C4.3986 125.933 1.96887 125.684 2.43735 123.905C2.43735 123.905 -0.699069 121.957 1.41834 120.689C1.41834 120.689 -1.4931 118.911 1.02662 117.471C1.02662 117.471 -0.934631 115.089 2.20178 114.422L5.497 114.075L4.3986 125.933Z" fill="#D88D6C"/>
<path d="M63.5194 84.2256H3.61523V126.881H63.5194V84.2256Z" fill="#E8CAB0"/>
<path d="M63.5192 84.2256H41.252V126.881H63.5192V84.2256Z" fill="#D4B8A2"/>
<path d="M55.6787 84.2256H50.0332V95.829H55.6787V84.2256Z" fill="#E8CAB0"/>
<path d="M55.6787 115.274H50.0332V126.878H55.6787V115.274Z" fill="#E8CAB0"/>
<path d="M55.1637 120.859L50.5583 115.476C50.5583 115.476 49.1476 113.329 44.7778 110.296C44.7778 110.296 43.5232 109.221 42.5307 108.525C42.5307 108.525 40.5086 109.396 43.9255 112.781C43.9255 112.781 44.4364 114.473 43.3194 114.706C42.2025 114.938 31.7848 113.554 31.7478 115.465C31.7478 115.465 31.4831 116.423 32.2163 116.879C32.2163 116.879 30.5753 116.765 30.7155 118.085C30.8558 119.406 31.5916 119.795 32.2268 119.843C32.2268 119.843 31.3031 119.978 31.4328 121.23C31.5625 122.482 32.5974 122.402 32.5974 122.402L35.53 122.752L38.5976 122.942L35.9032 124.604C35.9032 124.604 32.8938 124.075 32.8091 124.938C32.7244 125.801 32.9891 126.912 36.0699 126.465L39.9713 125.901C39.9713 125.901 48.0942 126.285 50.9103 124.395L55.1637 120.859Z" fill="#F4A984"/>
<path d="M50.9098 124.398L55.1631 120.862L50.5578 115.476C50.5578 115.476 49.1471 113.329 44.7773 110.296C44.7773 110.296 43.5227 109.221 42.5301 108.525C42.5301 108.525 40.508 109.396 43.925 112.781C43.925 112.781 44.4358 114.473 43.3189 114.706C42.59 114.745 41.8592 114.729 41.1327 114.658C40.1348 116.384 39.0629 119.967 41.5508 125.933C44.0626 125.938 48.8718 125.764 50.9098 124.398Z" fill="#E89A77"/>
<path d="M55.2751 114.96L51.2097 115.354C51.2097 115.354 48.9599 120.449 52.0831 125.391L57.4825 124.528L55.2751 114.96Z" fill="#8C7A6B"/>
<path d="M79.7548 61.627C79.7548 61.627 73.4026 67.3175 74.8742 103.655C74.8742 103.655 68.4214 104.317 55.1637 114.255C55.1637 114.255 52.6996 120.764 57.0906 125.729C57.0906 125.729 83.2009 122.193 86.7555 112.45C90.3101 102.707 92.8192 66.3673 79.7548 61.627Z" fill="#72CBCC"/>
<path d="M62.5694 17.9111C62.5694 17.9111 51.6356 22.1248 48.8697 21.9157C46.1039 21.7066 38.7512 18.504 38.7512 18.504C36.0462 20.7379 38.955 27.4051 38.955 27.4051L64.1336 31.3752L69.7739 32.291C70.7611 27.765 71.084 20.9999 70.9888 18.3584C65.8805 18.017 62.5694 17.9111 62.5694 17.9111Z" fill="#6A371A"/>
<path d="M67.4818 27.3495L65.3802 30.7453C64.9623 29.8196 64.6085 28.8663 64.3215 27.8921C62.6249 22.2651 62.5826 17.9111 62.5826 17.9111C54.672 18.762 46.7048 18.9603 38.7617 18.504C39.6007 24.9515 37.3669 39.5855 42.5678 46.7344C44.1161 48.8518 46.3235 50.3313 49.4732 50.7178C63.1861 52.3985 66.4972 37.7645 66.4972 37.7645C66.4972 37.7645 71.0522 37.304 71.7139 30.9703C72.2618 25.727 67.4818 27.3495 67.4818 27.3495Z" fill="#F4A984"/>
<path d="M70.4732 10.8833C63.5731 1.33906 53.9336 1.18555 53.9336 1.18555C53.9336 1.18555 62.3477 5.46801 64.2957 10.0257L65.4788 20.724C68.856 21.518 70.9946 22.2538 70.9946 22.2538C71.7516 15.6792 70.4732 10.8833 70.4732 10.8833Z" fill="#165E60"/>
<path d="M53.9337 1.18555C44.1512 2.11721 40.6549 5.92855 40.6549 5.92855C38.5639 8.80558 37.0605 20.1655 37.0605 20.1655C46.5889 16.9894 58.6264 19.1068 65.4815 20.724L64.2957 10.0257C62.3477 5.46801 53.9337 1.18555 53.9337 1.18555Z" fill="#72CBCC"/>
<path d="M27.7398 15.3271C27.7398 15.3271 27.2105 13.1541 29.8863 12.4289C32.5622 11.7037 49.0886 9.70274 56.5789 14.1017C58.3377 15.0238 60.0194 16.0859 61.6078 17.2778C63.577 18.8261 65.4853 20.7186 65.4853 20.7186L64.4266 20.7662L27.7398 15.3271Z" fill="#72CBCC"/>
<path d="M37.0595 20.1657C37.0595 20.1657 21.4938 15.3512 30.2837 13.4641C39.0736 11.5769 51.7993 12.2518 56.4867 14.9092C56.4867 14.9092 60.1922 16.7222 64.427 20.7718C64.4323 20.7718 47.5803 17.7889 37.0595 20.1657Z" fill="#50A9AA"/>
<path d="M55.5111 0.91578C55.5111 1.40543 54.7726 1.79186 53.8807 1.77862C52.9887 1.76539 52.2714 1.35514 52.2794 0.862845C52.2873 0.370547 53.0178 0 53.9098 0C54.8017 0 55.519 0.423482 55.5111 0.91578Z" fill="#50A9AA"/>
<path d="M47.0777 31.1951C47.0777 32.1373 46.5775 32.8943 45.9899 32.8837C45.4023 32.8731 44.9312 32.1056 44.9497 31.166C44.9683 30.2264 45.45 29.4667 46.0376 29.4747C46.6251 29.4826 47.091 30.2555 47.0777 31.1951Z" fill="#6A371A"/>
<path d="M56.9099 31.1951C56.9099 32.1373 56.407 32.8943 55.8195 32.8863C55.2319 32.8784 54.7608 32.0923 54.7819 31.166C54.8031 30.2396 55.2822 29.4667 55.8698 29.4747C56.4573 29.4826 56.9099 30.2555 56.9099 31.1951Z" fill="#6A371A"/>
<path d="M47.165 25.7799C45.1453 25.6993 43.1249 25.9196 41.17 26.4336L41.0298 26.468C40.9708 26.4749 40.9139 26.4937 40.8625 26.5233C40.8111 26.5528 40.7662 26.5926 40.7307 26.6401C40.6952 26.6872 40.6699 26.7412 40.6562 26.7985C40.6425 26.8559 40.6409 26.9155 40.6513 26.9736L40.7942 27.7676C40.8122 27.8674 40.8648 27.9576 40.9427 28.0224C41.0207 28.0873 41.1189 28.1226 41.2203 28.1223H41.268H41.3103C41.8794 28.0376 44.8385 27.6273 47.1729 27.8946C47.2352 27.9011 47.2982 27.894 47.3576 27.8739C47.417 27.8538 47.4713 27.8211 47.517 27.7782C47.5628 27.735 47.5987 27.6823 47.622 27.6237C47.6453 27.5652 47.6556 27.5023 47.652 27.4394L47.5831 26.1954C47.5792 26.086 47.5337 25.9822 47.4561 25.9051C47.3784 25.8279 47.2744 25.7832 47.165 25.7799Z" fill="#8E5931"/>
<path d="M61.0237 26.372C59.5468 25.6441 57.4717 25.2206 54.8594 25.1094H54.7191C54.608 25.0908 54.494 25.1164 54.4016 25.1807C54.3091 25.245 54.2454 25.3429 54.2241 25.4535L54.0018 26.5969C53.9804 26.7099 54.0042 26.8268 54.068 26.9225C54.1 26.9697 54.1411 27.0101 54.1888 27.0415C54.2364 27.0728 54.2898 27.0944 54.3459 27.1051C54.3997 27.108 54.4536 27.108 54.5073 27.1051C57.0668 27.1633 59.2292 27.4386 60.4467 27.8647C60.4926 27.8808 60.541 27.8888 60.5896 27.8885C60.6538 27.889 60.7173 27.8745 60.7749 27.8462C60.8781 27.7961 60.9579 27.7078 60.9972 27.6L61.2407 26.8987C61.2747 26.7995 61.2714 26.6913 61.2315 26.5944C61.1915 26.4975 61.1177 26.4184 61.0237 26.372Z" fill="#8E5931"/>
<path d="M50.6119 33.614C51.5436 33.5028 52.4858 38.9419 51.9088 38.8705C51.3319 38.799 49.4209 39.159 49.278 38.5105C49.135 37.862 49.3891 33.7649 50.6119 33.614Z" fill="#D88D6C"/>
<path d="M58.3503 39.6006C58.3401 39.8973 58.3074 40.1928 58.2524 40.4846C58.0493 41.6874 57.5366 42.8166 56.7649 43.7613C55.8597 44.8385 54.4358 45.7781 52.1993 46.0746C50.2115 46.3392 48.7002 45.9184 47.5542 45.1985C45.9423 44.1901 45.0609 42.5808 44.6083 41.4295C44.4279 40.9849 44.2871 40.5252 44.1875 40.0558C50.4947 41.8027 58.3503 39.6006 58.3503 39.6006Z" fill="#901A1D"/>
<path d="M56.7654 43.7616C55.8602 44.8388 54.4363 45.7785 52.1998 46.0749C50.212 46.3396 48.7007 45.9187 47.5547 45.1988C48.9162 43.9511 50.6681 43.214 52.5121 43.1132C54.4866 42.9755 55.6723 43.4069 56.7654 43.7616Z" fill="#F05D67"/>
<path d="M58.3503 39.6006C58.3401 39.8973 58.3074 40.1928 58.2524 40.4846C53.0065 43.0281 46.9348 41.9827 44.6083 41.4295C44.4279 40.9849 44.2871 40.5252 44.1875 40.0558C50.4947 41.8027 58.3503 39.6006 58.3503 39.6006Z" fill="white"/>
</svg>
